<?xml version="1.0" encoding="UTF-8" standalone="no"?>
<!-- Created with Inkscape (http://www.inkscape.org/) -->

<svg
   xmlns:dc="http://purl.org/dc/elements/1.1/"
   xmlns:cc="http://creativecommons.org/ns#"
   xmlns:rdf="http://www.w3.org/1999/02/22-rdf-syntax-ns#"
   xmlns:svg="http://www.w3.org/2000/svg"
   xmlns="http://www.w3.org/2000/svg"
   xmlns:sodipodi="http://sodipodi.sourceforge.net/DTD/sodipodi-0.dtd"
   xmlns:inkscape="http://www.inkscape.org/namespaces/inkscape"
   width="132.82083mm"
   height="39.751652mm"
   viewBox="0 0 132.82083 39.751652"
   version="1.1"
   id="svg8"
   inkscape:version="0.92.3 (2405546, 2018-03-11)"
   sodipodi:docname="logo.svg">
  <defs
     id="defs2" />
  <sodipodi:namedview
     id="base"
     pagecolor="#ffffff"
     bordercolor="#666666"
     borderopacity="1.0"
     inkscape:pageopacity="0.0"
     inkscape:pageshadow="2"
     inkscape:zoom="1.5991626"
     inkscape:cx="224.99938"
     inkscape:cy="113.13476"
     inkscape:document-units="mm"
     inkscape:current-layer="layer1"
     showgrid="true"
     inkscape:snap-grids="true"
     showguides="false"
     inkscape:pagecheckerboard="true"
     inkscape:snap-midpoints="true"
     inkscape:window-width="1920"
     inkscape:window-height="1017"
     inkscape:window-x="-8"
     inkscape:window-y="-8"
     inkscape:window-maximized="1"
     fit-margin-top="0"
     fit-margin-left="0"
     fit-margin-right="0"
     fit-margin-bottom="0">
    <inkscape:grid
       type="xygrid"
       id="grid3723"
       originx="-46.037498"
       originy="-136.46085" />
  </sodipodi:namedview>
  <metadata
     id="metadata5">
    <rdf:RDF>
      <cc:Work
         rdf:about="">
        <dc:format>image/svg+xml</dc:format>
        <dc:type
           rdf:resource="http://purl.org/dc/dcmitype/StillImage" />
        <dc:title />
      </cc:Work>
    </rdf:RDF>
  </metadata>
  <g
     inkscape:label="Layer 1"
     inkscape:groupmode="layer"
     id="layer1"
     transform="translate(-46.0375,-120.7875)">
    <g
       aria-label="INTERIOR SOURCES
"
       style="font-style:normal;font-variant:normal;font-weight:600;font-stretch:normal;font-size:11.28888893px;line-height:1.25;font-family:Sansumi-DemiBold;-inkscape-font-specification:'Sansumi-DemiBold, Semi-Bold';font-variant-ligatures:normal;font-variant-caps:normal;font-variant-numeric:normal;font-feature-settings:normal;text-align:center;letter-spacing:0px;word-spacing:0px;writing-mode:lr-tb;text-anchor:middle;fill:#ffffff;fill-opacity:1;stroke:none;stroke-width:0.26458332"
       id="text865">
      <path
         d="m 52.495789,140.13254 v -8.36506 h -0.6096 v 8.36506 z"
         style="font-style:normal;font-variant:normal;font-weight:600;font-stretch:normal;font-size:11.28888893px;font-family:Sansumi-DemiBold;-inkscape-font-specification:'Sansumi-DemiBold, Semi-Bold';font-variant-ligatures:normal;font-variant-caps:normal;font-variant-numeric:normal;font-feature-settings:normal;text-align:center;writing-mode:lr-tb;text-anchor:middle;fill:#ffffff;fill-opacity:1;stroke-width:0.26458332"
         id="path861" />
      <path
         d="m 61.565794,140.13254 v -8.36506 h -0.6096 q 0,2.69804 0,4.53813 0,1.8288 0.01129,2.88995 -0.835378,-1.04986 -2.3368,-2.88995 -1.490134,-1.84009 -3.668889,-4.53813 h -0.575733 v 8.36506 h 0.6096 q 0,-2.69804 0,-4.52684 0,-1.8288 -0.01129,-2.90125 0.846666,1.06116 2.3368,2.90125 1.490133,1.84009 3.668889,4.52684 z"
         style="font-style:normal;font-variant:normal;font-weight:600;font-stretch:normal;font-size:11.28888893px;font-family:Sansumi-DemiBold;-inkscape-font-specification:'Sansumi-DemiBold, Semi-Bold';font-variant-ligatures:normal;font-variant-caps:normal;font-variant-numeric:normal;font-feature-settings:normal;text-align:center;writing-mode:lr-tb;text-anchor:middle;fill:#ffffff;fill-opacity:1;stroke-width:0.26458332"
         id="path863" />
      <path
         d="m 70.104692,132.34321 v -0.57573 h -7.202311 v 0.57573 h 3.296355 v 7.78933 h 0.6096 v -7.78933 z"
         style="font-style:normal;font-variant:normal;font-weight:600;font-stretch:normal;font-size:11.28888893px;font-family:Sansumi-DemiBold;-inkscape-font-specification:'Sansumi-DemiBold, Semi-Bold';font-variant-ligatures:normal;font-variant-caps:normal;font-variant-numeric:normal;font-feature-settings:normal;text-align:center;writing-mode:lr-tb;text-anchor:middle;fill:#ffffff;fill-opacity:1;stroke-width:0.26458332"
         id="path866" />
      <path
         d="m 77.054944,140.13254 v -0.57573 h -5.159023 v -3.49956 h 4.064 v -0.57573 h -4.064 v -3.13831 h 5.000978 v -0.57573 h -5.610578 v 8.36506 z"
         style="font-style:normal;font-variant:normal;font-weight:600;font-stretch:normal;font-size:11.28888893px;font-family:Sansumi-DemiBold;-inkscape-font-specification:'Sansumi-DemiBold, Semi-Bold';font-variant-ligatures:normal;font-variant-caps:normal;font-variant-numeric:normal;font-feature-settings:normal;text-align:center;writing-mode:lr-tb;text-anchor:middle;fill:#ffffff;fill-opacity:1;stroke-width:0.26458332"
         id="path868" />
      <path
         d="m 86.375598,140.13254 -3.6576,-3.52213 q 0.598311,-0.0677 1.1176,-0.27093 0.519288,-0.2032 0.903111,-0.51929 0.383822,-0.32738 0.598311,-0.74507 0.225778,-0.41769 0.225778,-0.92569 0,-1.12889 -0.993423,-1.74978 -0.982133,-0.63217 -3.138311,-0.63217 h -2.867378 v 8.36506 h 0.6096 v -3.47698 h 2.777067 l 3.578578,3.47698 z m -1.4224,-5.98311 q 0,0.36125 -0.180623,0.7112 -0.180622,0.33867 -0.541866,0.6096 -0.349956,0.27093 -0.891823,0.44027 -0.530577,0.16933 -1.241777,0.16933 h -2.923823 v -3.73662 h 2.167467 q 1.162756,0 1.862667,0.15804 0.7112,0.15805 1.095022,0.41769 0.395111,0.25965 0.519289,0.58702 0.135467,0.31609 0.135467,0.64347 z"
         style="font-style:normal;font-variant:normal;font-weight:600;font-stretch:normal;font-size:11.28888893px;font-family:Sansumi-DemiBold;-inkscape-font-specification:'Sansumi-DemiBold, Semi-Bold';font-variant-ligatures:normal;font-variant-caps:normal;font-variant-numeric:normal;font-feature-settings:normal;text-align:center;writing-mode:lr-tb;text-anchor:middle;fill:#ffffff;fill-opacity:1;stroke-width:0.26458332"
         id="path870" />
      <path
         d="m 88.368882,140.13254 v -8.36506 h -0.6096 v 8.36506 z"
         style="font-style:normal;font-variant:normal;font-weight:600;font-stretch:normal;font-size:11.28888893px;font-family:Sansumi-DemiBold;-inkscape-font-specification:'Sansumi-DemiBold, Semi-Bold';font-variant-ligatures:normal;font-variant-caps:normal;font-variant-numeric:normal;font-feature-settings:normal;text-align:center;writing-mode:lr-tb;text-anchor:middle;fill:#ffffff;fill-opacity:1;stroke-width:0.26458332"
         id="path872" />
      <path
         d="m 99.26389,135.95565 q 0,-1.09502 -0.383822,-1.90782 -0.383822,-0.82409 -1.027289,-1.36595 -0.632177,-0.54187 -1.467555,-0.80152 -0.824089,-0.27093 -1.704622,-0.27093 -0.880534,0 -1.715912,0.27093 -0.824088,0.25965 -1.467555,0.80152 -0.632178,0.54186 -1.016,1.35466 -0.383822,0.8128 -0.383822,1.90782 v 0.0113 q 0,1.09503 0.383822,1.90783 0.383822,0.8128 1.016,1.35466 0.643467,0.54187 1.467555,0.80151 0.835378,0.27094 1.715912,0.27094 0.880533,0 1.704622,-0.27094 0.835378,-0.25964 1.467555,-0.80151 0.643467,-0.54186 1.027289,-1.35466 0.383822,-0.8128 0.383822,-1.90783 z m -0.6096,-0.0113 q 0,0.95956 -0.327377,1.67076 -0.327378,0.7112 -0.880534,1.17404 -0.541866,0.46285 -1.264355,0.69992 -0.722489,0.22577 -1.501422,0.22577 -0.778934,0 -1.501423,-0.22577 -0.722489,-0.23707 -1.275644,-0.69992 -0.541867,-0.46284 -0.869245,-1.17404 -0.327377,-0.7112 -0.327377,-1.67076 0,-0.95955 0.327377,-1.67075 0.327378,-0.72249 0.869245,-1.18533 0.553155,-0.46285 1.264355,-0.68863 0.722489,-0.23706 1.501423,-0.23706 h 0.01129 q 0.778933,0 1.501422,0.23706 0.722489,0.22578 1.264355,0.68863 0.553156,0.46284 0.880534,1.18533 0.327377,0.7112 0.327377,1.67075 z"
         style="font-style:normal;font-variant:normal;font-weight:600;font-stretch:normal;font-size:11.28888893px;font-family:Sansumi-DemiBold;-inkscape-font-specification:'Sansumi-DemiBold, Semi-Bold';font-variant-ligatures:normal;font-variant-caps:normal;font-variant-numeric:normal;font-feature-settings:normal;text-align:center;writing-mode:lr-tb;text-anchor:middle;fill:#ffffff;fill-opacity:1;stroke-width:0.26458332"
         id="path874" />
      <path
         d="m 108.86518,140.13254 -3.6576,-3.52213 q 0.59831,-0.0677 1.1176,-0.27093 0.51929,-0.2032 0.90311,-0.51929 0.38382,-0.32738 0.59831,-0.74507 0.22578,-0.41769 0.22578,-0.92569 0,-1.12889 -0.99342,-1.74978 -0.98213,-0.63217 -3.13831,-0.63217 h -2.86738 v 8.36506 h 0.6096 v -3.47698 h 2.77707 l 3.57857,3.47698 z m -1.4224,-5.98311 q 0,0.36125 -0.18062,0.7112 -0.18062,0.33867 -0.54187,0.6096 -0.34995,0.27093 -0.89182,0.44027 -0.53058,0.16933 -1.24178,0.16933 h -2.92382 v -3.73662 h 2.16747 q 1.16275,0 1.86266,0.15804 0.7112,0.15805 1.09503,0.41769 0.39511,0.25965 0.51928,0.58702 0.13547,0.31609 0.13547,0.64347 z"
         style="font-style:normal;font-variant:normal;font-weight:600;font-stretch:normal;font-size:11.28888893px;font-family:Sansumi-DemiBold;-inkscape-font-specification:'Sansumi-DemiBold, Semi-Bold';font-variant-ligatures:normal;font-variant-caps:normal;font-variant-numeric:normal;font-feature-settings:normal;text-align:center;writing-mode:lr-tb;text-anchor:middle;fill:#ffffff;fill-opacity:1;stroke-width:0.26458332"
         id="path876" />
      <path
         d="m 119.84019,137.77316 q 0,-0.59831 -0.29351,-0.99342 -0.28223,-0.4064 -0.63218,-0.63218 -0.21449,-0.13546 -0.45156,-0.23706 -0.23706,-0.11289 -0.55315,-0.2032 -0.3048,-0.0903 -0.69991,-0.18062 -0.39512,-0.1016 -0.9144,-0.21449 -0.59832,-0.13547 -1.016,-0.22578 -0.4064,-0.0903 -0.69992,-0.16933 -0.28222,-0.079 -0.47413,-0.13547 -0.19191,-0.0677 -0.34995,-0.14676 -0.29352,-0.14675 -0.47414,-0.39511 -0.16933,-0.25964 -0.16933,-0.59831 0,-0.66604 0.68862,-1.04987 0.37253,-0.21448 0.97085,-0.31608 0.6096,-0.1016 1.29822,-0.1016 0.62089,0 1.08373,0.079 0.46285,0.079 0.80151,0.22578 0.33867,0.14675 0.56445,0.36124 0.23706,0.21449 0.39511,0.48542 l 0.53058,-0.28222 q -0.2032,-0.34996 -0.49672,-0.62089 -0.29351,-0.27093 -0.69991,-0.45155 -0.4064,-0.18063 -0.94826,-0.27094 -0.53058,-0.0903 -1.23049,-0.0903 -0.79022,0 -1.43369,0.11289 -0.64347,0.11289 -1.12889,0.37253 -0.54187,0.27094 -0.77893,0.68863 -0.22578,0.4064 -0.22578,0.82408 0,0.58703 0.27093,0.95956 0.27094,0.36124 0.6096,0.54187 0.14676,0.079 0.31609,0.15804 0.18062,0.0677 0.45156,0.14676 0.27093,0.079 0.68862,0.18062 0.41769,0.1016 1.07244,0.24835 0.62089,0.13547 1.03858,0.23707 0.42898,0.1016 0.7112,0.19191 0.29351,0.079 0.47413,0.15805 0.19192,0.0677 0.33867,0.14675 0.27093,0.15805 0.508,0.44027 0.24836,0.28222 0.24836,0.77893 0,0.37254 -0.2032,0.7112 -0.2032,0.32738 -0.56445,0.56445 -0.44026,0.29351 -1.04986,0.47413 -0.59832,0.18062 -1.38854,0.18062 -1.26435,0 -2.07715,-0.33866 -0.8128,-0.33867 -1.26436,-0.9144 l -0.47413,0.39511 q 0.58702,0.67733 1.47884,1.04986 0.90311,0.37254 2.32551,0.37254 0.84667,0 1.55787,-0.2032 0.7112,-0.19191 1.2192,-0.54187 0.49671,-0.32738 0.76764,-0.77893 0.28223,-0.45156 0.28223,-0.99343 z"
         style="font-style:normal;font-variant:normal;font-weight:600;font-stretch:normal;font-size:11.28888893px;font-family:Sansumi-DemiBold;-inkscape-font-specification:'Sansumi-DemiBold, Semi-Bold';font-variant-ligatures:normal;font-variant-caps:normal;font-variant-numeric:normal;font-feature-settings:normal;text-align:center;writing-mode:lr-tb;text-anchor:middle;fill:#ffffff;fill-opacity:1;stroke-width:0.26458332"
         id="path878" />
      <path
         d="m 130.41858,135.95565 q 0,-1.09502 -0.38383,-1.90782 -0.38382,-0.82409 -1.02728,-1.36595 -0.63218,-0.54187 -1.46756,-0.80152 -0.82409,-0.27093 -1.70462,-0.27093 -0.88054,0 -1.71591,0.27093 -0.82409,0.25965 -1.46756,0.80152 -0.63218,0.54186 -1.016,1.35466 -0.38382,0.8128 -0.38382,1.90782 v 0.0113 q 0,1.09503 0.38382,1.90783 0.38382,0.8128 1.016,1.35466 0.64347,0.54187 1.46756,0.80151 0.83537,0.27094 1.71591,0.27094 0.88053,0 1.70462,-0.27094 0.83538,-0.25964 1.46756,-0.80151 0.64346,-0.54186 1.02728,-1.35466 0.38383,-0.8128 0.38383,-1.90783 z m -0.6096,-0.0113 q 0,0.95956 -0.32738,1.67076 -0.32738,0.7112 -0.88053,1.17404 -0.54187,0.46285 -1.26436,0.69992 -0.72249,0.22577 -1.50142,0.22577 -0.77894,0 -1.50142,-0.22577 -0.72249,-0.23707 -1.27565,-0.69992 -0.54187,-0.46284 -0.86924,-1.17404 -0.32738,-0.7112 -0.32738,-1.67076 0,-0.95955 0.32738,-1.67075 0.32737,-0.72249 0.86924,-1.18533 0.55316,-0.46285 1.26436,-0.68863 0.72249,-0.23706 1.50142,-0.23706 h 0.0113 q 0.77893,0 1.50142,0.23706 0.72249,0.22578 1.26436,0.68863 0.55315,0.46284 0.88053,1.18533 0.32738,0.7112 0.32738,1.67075 z"
         style="font-style:normal;font-variant:normal;font-weight:600;font-stretch:normal;font-size:11.28888893px;font-family:Sansumi-DemiBold;-inkscape-font-specification:'Sansumi-DemiBold, Semi-Bold';font-variant-ligatures:normal;font-variant-caps:normal;font-variant-numeric:normal;font-feature-settings:normal;text-align:center;writing-mode:lr-tb;text-anchor:middle;fill:#ffffff;fill-opacity:1;stroke-width:0.26458332"
         id="path880" />
      <path
         d="m 139.13872,136.71201 v -4.94453 h -0.6096 v 4.92195 q 0,0.83538 -0.12418,1.4224 -0.11289,0.57573 -0.41769,0.93698 -0.3048,0.36124 -0.83538,0.51929 -0.51929,0.15804 -1.33209,0.15804 -0.79022,0 -1.30951,-0.15804 -0.508,-0.15805 -0.8128,-0.51929 -0.3048,-0.36125 -0.42898,-0.93698 -0.12417,-0.58702 -0.12417,-1.4224 v -4.92195 h -0.6096 v 4.94453 q 0,1.016 0.19191,1.70462 0.19191,0.68862 0.58702,1.10631 0.4064,0.41769 1.02729,0.58702 0.62089,0.18063 1.47884,0.18063 0.86925,0 1.49014,-0.18063 0.63217,-0.16933 1.03857,-0.58702 0.4064,-0.41769 0.59832,-1.10631 0.19191,-0.68862 0.19191,-1.70462 z"
         style="font-style:normal;font-variant:normal;font-weight:600;font-stretch:normal;font-size:11.28888893px;font-family:Sansumi-DemiBold;-inkscape-font-specification:'Sansumi-DemiBold, Semi-Bold';font-variant-ligatures:normal;font-variant-caps:normal;font-variant-numeric:normal;font-feature-settings:normal;text-align:center;writing-mode:lr-tb;text-anchor:middle;fill:#ffffff;fill-opacity:1;stroke-width:0.26458332"
         id="path882" />
      <path
         d="m 148.87238,140.13254 -3.6576,-3.52213 q 0.59831,-0.0677 1.1176,-0.27093 0.51929,-0.2032 0.90311,-0.51929 0.38383,-0.32738 0.59832,-0.74507 0.22577,-0.41769 0.22577,-0.92569 0,-1.12889 -0.99342,-1.74978 -0.98213,-0.63217 -3.13831,-0.63217 h -2.86738 v 8.36506 h 0.6096 v -3.47698 h 2.77707 l 3.57858,3.47698 z m -1.4224,-5.98311 q 0,0.36125 -0.18062,0.7112 -0.18062,0.33867 -0.54187,0.6096 -0.34995,0.27093 -0.89182,0.44027 -0.53058,0.16933 -1.24178,0.16933 h -2.92382 v -3.73662 h 2.16747 q 1.16275,0 1.86267,0.15804 0.7112,0.15805 1.09502,0.41769 0.39511,0.25965 0.51929,0.58702 0.13546,0.31609 0.13546,0.64347 z"
         style="font-style:normal;font-variant:normal;font-weight:600;font-stretch:normal;font-size:11.28888893px;font-family:Sansumi-DemiBold;-inkscape-font-specification:'Sansumi-DemiBold, Semi-Bold';font-variant-ligatures:normal;font-variant-caps:normal;font-variant-numeric:normal;font-feature-settings:normal;text-align:center;writing-mode:lr-tb;text-anchor:middle;fill:#ffffff;fill-opacity:1;stroke-width:0.26458332"
         id="path884" />
      <path
         d="m 157.58282,138.20214 -0.49671,-0.33866 q -0.21449,0.29351 -0.51929,0.62088 -0.29351,0.32738 -0.69991,0.6096 -0.39511,0.27094 -0.89182,0.45156 -0.49671,0.18062 -1.10631,0.18062 -0.75636,0 -1.46756,-0.22578 -0.69991,-0.23706 -1.25306,-0.69991 -0.54187,-0.46284 -0.86925,-1.17404 -0.32738,-0.7112 -0.32738,-1.67076 0,-1.016 0.34996,-1.7272 0.34996,-0.72249 0.9144,-1.17404 0.56444,-0.46285 1.27564,-0.66605 0.7112,-0.21448 1.43369,-0.21448 0.51929,0 0.94827,0.12417 0.42898,0.12418 0.77893,0.34996 0.36125,0.22578 0.64347,0.53058 0.28222,0.3048 0.508,0.65475 l 0.508,-0.31609 q -0.25964,-0.41769 -0.59831,-0.76764 -0.33867,-0.34996 -0.75636,-0.59831 -0.41769,-0.25965 -0.92569,-0.39511 -0.508,-0.14676 -1.10631,-0.14676 -0.99342,0 -1.8288,0.3048 -0.83537,0.29351 -1.45626,0.86925 -0.6096,0.57573 -0.95956,1.37724 -0.33867,0.79022 -0.33867,1.78364 0,0.99343 0.34996,1.80623 0.36124,0.8128 1.00471,1.4224 0.508,0.47413 1.3208,0.79022 0.82409,0.32738 1.85138,0.32738 0.69991,0 1.26435,-0.19191 0.56445,-0.19192 1.016,-0.48543 0.46285,-0.3048 0.8128,-0.67733 0.34996,-0.37253 0.62089,-0.73378 z"
         style="font-style:normal;font-variant:normal;font-weight:600;font-stretch:normal;font-size:11.28888893px;font-family:Sansumi-DemiBold;-inkscape-font-specification:'Sansumi-DemiBold, Semi-Bold';font-variant-ligatures:normal;font-variant-caps:normal;font-variant-numeric:normal;font-feature-settings:normal;text-align:center;writing-mode:lr-tb;text-anchor:middle;fill:#ffffff;fill-opacity:1;stroke-width:0.26458332"
         id="path886" />
      <path
         d="m 164.27925,140.13254 v -0.57573 h -5.15902 v -3.49956 h 4.064 v -0.57573 h -4.064 v -3.13831 h 5.00098 v -0.57573 h -5.61058 v 8.36506 z"
         style="font-style:normal;font-variant:normal;font-weight:600;font-stretch:normal;font-size:11.28888893px;font-family:Sansumi-DemiBold;-inkscape-font-specification:'Sansumi-DemiBold, Semi-Bold';font-variant-ligatures:normal;font-variant-caps:normal;font-variant-numeric:normal;font-feature-settings:normal;text-align:center;writing-mode:lr-tb;text-anchor:middle;fill:#ffffff;fill-opacity:1;stroke-width:0.26458332"
         id="path888" />
      <path
         d="m 172.53636,137.77316 q 0,-0.59831 -0.29351,-0.99342 -0.28222,-0.4064 -0.63217,-0.63218 -0.21449,-0.13546 -0.45156,-0.23706 -0.23707,-0.11289 -0.55316,-0.2032 -0.3048,-0.0903 -0.69991,-0.18062 -0.39511,-0.1016 -0.9144,-0.21449 -0.59831,-0.13547 -1.016,-0.22578 -0.4064,-0.0903 -0.69991,-0.16933 -0.28222,-0.079 -0.47413,-0.13547 -0.19191,-0.0677 -0.34996,-0.14676 -0.29351,-0.14675 -0.47413,-0.39511 -0.16933,-0.25964 -0.16933,-0.59831 0,-0.66604 0.68862,-1.04987 0.37253,-0.21448 0.97084,-0.31608 0.6096,-0.1016 1.29823,-0.1016 0.62088,0 1.08373,0.079 0.46284,0.079 0.80151,0.22578 0.33867,0.14675 0.56444,0.36124 0.23707,0.21449 0.39512,0.48542 l 0.53057,-0.28222 q -0.2032,-0.34996 -0.49671,-0.62089 -0.29351,-0.27093 -0.69991,-0.45155 -0.4064,-0.18063 -0.94827,-0.27094 -0.53057,-0.0903 -1.23048,-0.0903 -0.79023,0 -1.43369,0.11289 -0.64347,0.11289 -1.12889,0.37253 -0.54187,0.27094 -0.77894,0.68863 -0.22577,0.4064 -0.22577,0.82408 0,0.58703 0.27093,0.95956 0.27093,0.36124 0.6096,0.54187 0.14676,0.079 0.31609,0.15804 0.18062,0.0677 0.45155,0.14676 0.27094,0.079 0.68863,0.18062 0.41769,0.1016 1.07244,0.24835 0.62089,0.13547 1.03858,0.23707 0.42898,0.1016 0.7112,0.19191 0.29351,0.079 0.47413,0.15805 0.19191,0.0677 0.33867,0.14675 0.27093,0.15805 0.508,0.44027 0.24835,0.28222 0.24835,0.77893 0,0.37254 -0.2032,0.7112 -0.2032,0.32738 -0.56444,0.56445 -0.44027,0.29351 -1.04987,0.47413 -0.59831,0.18062 -1.38853,0.18062 -1.26436,0 -2.07716,-0.33866 -0.8128,-0.33867 -1.26435,-0.9144 l -0.47413,0.39511 q 0.58702,0.67733 1.47884,1.04986 0.90311,0.37254 2.32551,0.37254 0.84667,0 1.55787,-0.2032 0.7112,-0.19191 1.2192,-0.54187 0.49671,-0.32738 0.76764,-0.77893 0.28222,-0.45156 0.28222,-0.99343 z"
         style="font-style:normal;font-variant:normal;font-weight:600;font-stretch:normal;font-size:11.28888893px;font-family:Sansumi-DemiBold;-inkscape-font-specification:'Sansumi-DemiBold, Semi-Bold';font-variant-ligatures:normal;font-variant-caps:normal;font-variant-numeric:normal;font-feature-settings:normal;text-align:center;writing-mode:lr-tb;text-anchor:middle;fill:#ffffff;fill-opacity:1;stroke-width:0.26458332"
         id="path890" />
    </g>
    <text
       xml:space="preserve"
       style="font-style:normal;font-weight:normal;font-size:10.58333302px;line-height:1.25;font-family:sans-serif;letter-spacing:0px;word-spacing:0px;fill:#000000;fill-opacity:1;stroke:none;stroke-width:0.26458332"
       x="113.77083"
       y="158.09375"
       id="text4606"><tspan
         sodipodi:role="line"
         id="tspan4604"
         x="113.77083"
         y="167.74925"
         style="stroke-width:0.26458332" /></text>
    <g
       aria-label="by"
       style="font-style:normal;font-variant:normal;font-weight:600;font-stretch:normal;font-size:4.93888903px;line-height:1.25;font-family:Sansumi-DemiBold;-inkscape-font-specification:'Sansumi-DemiBold, Semi-Bold';font-variant-ligatures:normal;font-variant-caps:normal;font-variant-numeric:normal;font-feature-settings:normal;text-align:center;letter-spacing:0px;word-spacing:0px;writing-mode:lr-tb;text-anchor:middle;fill:#ffffff;fill-opacity:1;stroke:none;stroke-width:0.26458332"
       id="text871"
       transform="translate(-0.436508,-2.4444316)">
      <path
         d="m 111.11948,147.37887 q 0,-0.31115 -0.10866,-0.57291 -0.10371,-0.2667 -0.30127,-0.45932 -0.19262,-0.19756 -0.46919,-0.30621 -0.27658,-0.1136 -0.61736,-0.1136 -0.29634,0 -0.57785,0.0889 -0.27658,0.0889 -0.51365,0.2914 v -1.28411 h -0.25682 v 3.74861 h 0.25682 l -0.005,-0.3309 0.0444,0.0296 q 0.0494,0.0395 0.10866,0.084 0.0593,0.0395 0.12841,0.079 0.14817,0.084 0.34078,0.13828 0.19756,0.0593 0.46426,0.0593 0.37535,0 0.65687,-0.12347 0.28152,-0.12347 0.46919,-0.32597 0.19262,-0.20249 0.28646,-0.46425 0.0938,-0.26177 0.0938,-0.53834 z m -0.25682,0 q 0,0.23706 -0.084,0.45931 -0.079,0.21732 -0.23707,0.38524 -0.15311,0.16792 -0.39017,0.2667 -0.23213,0.0988 -0.5334,0.0988 -0.24201,0 -0.42475,-0.0543 -0.1778,-0.0593 -0.31115,-0.13829 -0.0691,-0.0395 -0.12347,-0.079 -0.0543,-0.0395 -0.10372,-0.079 -0.0395,-0.0296 -0.0691,-0.0543 -0.0296,-0.0296 -0.0543,-0.0543 v -1.50142 q 0.25188,-0.25683 0.51858,-0.3556 0.27164,-0.10372 0.56798,-0.10372 0.29633,0 0.52846,0.0938 0.23213,0.0938 0.39017,0.26176 0.16298,0.16298 0.24201,0.38523 0.084,0.21731 0.084,0.4692 z"
         style="font-style:normal;font-variant:normal;font-weight:600;font-stretch:normal;font-size:4.93888903px;font-family:Sansumi-DemiBold;-inkscape-font-specification:'Sansumi-DemiBold, Semi-Bold';font-variant-ligatures:normal;font-variant-caps:normal;font-variant-numeric:normal;font-feature-settings:normal;text-align:center;writing-mode:lr-tb;text-anchor:middle;fill:#ffffff;fill-opacity:1;stroke-width:0.26458332"
         id="path893"
         inkscape:connector-curvature="0" />
      <path
         d="m 114.3668,145.9861 h -0.27658 l -0.53834,1.25942 q -0.11853,0.27657 -0.242,0.56303 -0.11854,0.28646 -0.24201,0.57785 -0.38029,-0.60254 -0.75565,-1.20015 -0.37535,-0.59761 -0.75071,-1.20015 h -0.30127 l 1.68416,2.67194 -0.24201,0.54822 q -0.10371,0.24694 -0.2667,0.40005 -0.21237,0.21237 -0.58772,0.21237 -0.0988,0 -0.1778,-0.0148 -0.079,-0.01 -0.14817,-0.0296 -0.0741,-0.0247 -0.14323,-0.0642 -0.0691,-0.0346 -0.15804,-0.0889 l -0.13335,0.22225 q 0.11359,0.0642 0.18767,0.0988 0.0741,0.0395 0.16793,0.0642 0.084,0.0247 0.1778,0.0395 0.0988,0.0148 0.22719,0.0148 0.26176,0 0.4445,-0.079 0.18273,-0.079 0.31115,-0.19261 0.12841,-0.11854 0.20743,-0.25189 0.079,-0.13335 0.12841,-0.24694 z"
         style="font-style:normal;font-variant:normal;font-weight:600;font-stretch:normal;font-size:4.93888903px;font-family:Sansumi-DemiBold;-inkscape-font-specification:'Sansumi-DemiBold, Semi-Bold';font-variant-ligatures:normal;font-variant-caps:normal;font-variant-numeric:normal;font-feature-settings:normal;text-align:center;writing-mode:lr-tb;text-anchor:middle;fill:#ffffff;fill-opacity:1;stroke-width:0.26458332"
         id="path895"
         inkscape:connector-curvature="0" />
    </g>
    <g
       aria-label="BARBARA TODD"
       transform="scale(0.9478619,1.055006)"
       style="font-style:normal;font-variant:normal;font-weight:normal;font-stretch:normal;font-size:11.28888893px;line-height:1.25;font-family:Montserrat;-inkscape-font-specification:'Montserrat, Normal';font-variant-ligatures:normal;font-variant-caps:normal;font-variant-numeric:normal;font-feature-settings:normal;text-align:center;letter-spacing:0px;word-spacing:0px;writing-mode:lr-tb;text-anchor:middle;fill:#ffffff;fill-opacity:1;stroke:none;stroke-width:0.25078845;stroke-opacity:1"
       id="text849">
      <path
         d="m 77.15659,147.89363 q 0.778933,0.16933 1.196622,0.67733 0.428978,0.49671 0.428978,1.28694 0,1.016 -0.756355,1.56915 -0.745067,0.54187 -2.212623,0.54187 H 72.17819 v -7.90222 h 3.409245 q 1.3208,0 2.043288,0.53057 0.733778,0.53058 0.733778,1.50143 0,0.65475 -0.327378,1.1176 -0.316088,0.45155 -0.880533,0.67733 z m -4.143022,-3.13831 v 2.86738 h 2.517422 q 0.959556,0 1.478845,-0.36125 0.519288,-0.37253 0.519288,-1.07244 0,-0.69991 -0.519288,-1.06116 -0.519289,-0.37253 -1.478845,-0.37253 z m 2.788355,6.52498 q 1.061156,0 1.603023,-0.36125 0.541866,-0.36124 0.541866,-1.12889 0,-1.47884 -2.144889,-1.47884 h -2.788355 v 2.96898 z"
         style="font-style:normal;font-variant:normal;font-weight:normal;font-stretch:normal;font-size:11.28888893px;font-family:Montserrat;-inkscape-font-specification:'Montserrat, Normal';font-variant-ligatures:normal;font-variant-caps:normal;font-variant-numeric:normal;font-feature-settings:normal;text-align:center;writing-mode:lr-tb;text-anchor:middle;fill:#ffffff;fill-opacity:1;stroke:none;stroke-width:0.25078845;stroke-opacity:1"
         id="path898" />
      <path
         d="M 85.644776,149.8579 H 81.24211 l -0.948267,2.11102 h -0.869244 l 3.612444,-7.90222 h 0.824089 l 3.612444,7.90222 h -0.880533 z m -0.3048,-0.67734 -1.896533,-4.24462 -1.896533,4.24462 z"
         style="font-style:normal;font-variant:normal;font-weight:normal;font-stretch:normal;font-size:11.28888893px;font-family:Montserrat;-inkscape-font-specification:'Montserrat, Normal';font-variant-ligatures:normal;font-variant-caps:normal;font-variant-numeric:normal;font-feature-settings:normal;text-align:center;writing-mode:lr-tb;text-anchor:middle;fill:#ffffff;fill-opacity:1;stroke:none;stroke-width:0.25078845;stroke-opacity:1"
         id="path900" />
      <path
         d="m 94.176883,151.96892 -1.806222,-2.54 q -0.3048,0.0339 -0.632178,0.0339 h -2.122311 v 2.50614 h -0.835378 v -7.90222 h 2.957689 q 1.512711,0 2.370667,0.72248 0.857955,0.72249 0.857955,1.98685 0,0.92569 -0.474133,1.56915 -0.462845,0.63218 -1.332089,0.9144 l 1.9304,2.70934 z m -2.460978,-3.21734 q 1.174045,0 1.794933,-0.51928 0.620889,-0.51929 0.620889,-1.45627 0,-0.95956 -0.620889,-1.46756 -0.620888,-0.51929 -1.794933,-0.51929 h -2.099733 v 3.9624 z"
         style="font-style:normal;font-variant:normal;font-weight:normal;font-stretch:normal;font-size:11.28888893px;font-family:Montserrat;-inkscape-font-specification:'Montserrat, Normal';font-variant-ligatures:normal;font-variant-caps:normal;font-variant-numeric:normal;font-feature-settings:normal;text-align:center;writing-mode:lr-tb;text-anchor:middle;fill:#ffffff;fill-opacity:1;stroke:none;stroke-width:0.25078845;stroke-opacity:1"
         id="path902" />
      <path
         d="m 101.91718,147.89363 q 0.77893,0.16933 1.19662,0.67733 0.42898,0.49671 0.42898,1.28694 0,1.016 -0.75636,1.56915 -0.74506,0.54187 -2.21262,0.54187 h -3.63502 v -7.90222 h 3.40924 q 1.3208,0 2.04329,0.53057 0.73378,0.53058 0.73378,1.50143 0,0.65475 -0.32738,1.1176 -0.31609,0.45155 -0.88053,0.67733 z m -4.143023,-3.13831 v 2.86738 h 2.517423 q 0.95956,0 1.47884,-0.36125 0.51929,-0.37253 0.51929,-1.07244 0,-0.69991 -0.51929,-1.06116 -0.51928,-0.37253 -1.47884,-0.37253 z m 2.788353,6.52498 q 1.06116,0 1.60303,-0.36125 0.54186,-0.36124 0.54186,-1.12889 0,-1.47884 -2.14489,-1.47884 h -2.788353 v 2.96898 z"
         style="font-style:normal;font-variant:normal;font-weight:normal;font-stretch:normal;font-size:11.28888893px;font-family:Montserrat;-inkscape-font-specification:'Montserrat, Normal';font-variant-ligatures:normal;font-variant-caps:normal;font-variant-numeric:normal;font-feature-settings:normal;text-align:center;writing-mode:lr-tb;text-anchor:middle;fill:#ffffff;fill-opacity:1;stroke:none;stroke-width:0.25078845;stroke-opacity:1"
         id="path904" />
      <path
         d="m 110.40537,149.8579 h -4.40267 l -0.94827,2.11102 h -0.86924 l 3.61244,-7.90222 h 0.82409 l 3.61245,7.90222 h -0.88054 z m -0.3048,-0.67734 -1.89654,-4.24462 -1.89653,4.24462 z"
         style="font-style:normal;font-variant:normal;font-weight:normal;font-stretch:normal;font-size:11.28888893px;font-family:Montserrat;-inkscape-font-specification:'Montserrat, Normal';font-variant-ligatures:normal;font-variant-caps:normal;font-variant-numeric:normal;font-feature-settings:normal;text-align:center;writing-mode:lr-tb;text-anchor:middle;fill:#ffffff;fill-opacity:1;stroke:none;stroke-width:0.25078845;stroke-opacity:1"
         id="path906" />
      <path
         d="m 118.93748,151.96892 -1.80623,-2.54 q -0.3048,0.0339 -0.63217,0.0339 h -2.12231 v 2.50614 h -0.83538 v -7.90222 h 2.95769 q 1.51271,0 2.37066,0.72248 0.85796,0.72249 0.85796,1.98685 0,0.92569 -0.47413,1.56915 -0.46285,0.63218 -1.33209,0.9144 l 1.9304,2.70934 z m -2.46098,-3.21734 q 1.17404,0 1.79493,-0.51928 0.62089,-0.51929 0.62089,-1.45627 0,-0.95956 -0.62089,-1.46756 -0.62089,-0.51929 -1.79493,-0.51929 h -2.09973 v 3.9624 z"
         style="font-style:normal;font-variant:normal;font-weight:normal;font-stretch:normal;font-size:11.28888893px;font-family:Montserrat;-inkscape-font-specification:'Montserrat, Normal';font-variant-ligatures:normal;font-variant-caps:normal;font-variant-numeric:normal;font-feature-settings:normal;text-align:center;writing-mode:lr-tb;text-anchor:middle;fill:#ffffff;fill-opacity:1;stroke:none;stroke-width:0.25078845;stroke-opacity:1"
         id="path908" />
      <path
         d="m 126.65519,149.8579 h -4.40267 l -0.94826,2.11102 h -0.86925 l 3.61245,-7.90222 h 0.82409 l 3.61244,7.90222 h -0.88053 z m -0.3048,-0.67734 -1.89653,-4.24462 -1.89654,4.24462 z"
         style="font-style:normal;font-variant:normal;font-weight:normal;font-stretch:normal;font-size:11.28888893px;font-family:Montserrat;-inkscape-font-specification:'Montserrat, Normal';font-variant-ligatures:normal;font-variant-caps:normal;font-variant-numeric:normal;font-feature-settings:normal;text-align:center;writing-mode:lr-tb;text-anchor:middle;fill:#ffffff;fill-opacity:1;stroke:none;stroke-width:0.25078845;stroke-opacity:1"
         id="path910" />
      <path
         d="m 134.28101,144.78918 h -2.77706 v -0.72248 h 6.38951 v 0.72248 h -2.77707 v 7.17974 h -0.83538 z"
         style="font-style:normal;font-variant:normal;font-weight:normal;font-stretch:normal;font-size:11.28888893px;font-family:Montserrat;-inkscape-font-specification:'Montserrat, Normal';font-variant-ligatures:normal;font-variant-caps:normal;font-variant-numeric:normal;font-feature-settings:normal;text-align:center;writing-mode:lr-tb;text-anchor:middle;fill:#ffffff;fill-opacity:1;stroke:none;stroke-width:0.25078845;stroke-opacity:1"
         id="path912" />
      <path
         d="m 142.57217,152.03665 q -1.17404,0 -2.1336,-0.51929 -0.94826,-0.53058 -1.49013,-1.44498 -0.53058,-0.9144 -0.53058,-2.05457 0,-1.14018 0.53058,-2.05458 0.54187,-0.9144 1.49013,-1.43369 0.95956,-0.53058 2.1336,-0.53058 1.17405,0 2.11103,0.51929 0.94826,0.51929 1.49013,1.44498 0.54187,0.9144 0.54187,2.05458 0,1.14017 -0.54187,2.06586 -0.54187,0.9144 -1.49013,1.43369 -0.93698,0.51929 -2.11103,0.51929 z m 0,-0.74507 q 0.93698,0 1.69334,-0.41768 0.75635,-0.42898 1.18533,-1.17405 0.42898,-0.75635 0.42898,-1.68204 0,-0.92569 -0.42898,-1.67076 -0.42898,-0.75635 -1.18533,-1.17404 -0.75636,-0.42898 -1.69334,-0.42898 -0.93697,0 -1.70462,0.42898 -0.75635,0.41769 -1.19662,1.17404 -0.42898,0.74507 -0.42898,1.67076 0,0.92569 0.42898,1.68204 0.44027,0.74507 1.19662,1.17405 0.76765,0.41768 1.70462,0.41768 z"
         style="font-style:normal;font-variant:normal;font-weight:normal;font-stretch:normal;font-size:11.28888893px;font-family:Montserrat;-inkscape-font-specification:'Montserrat, Normal';font-variant-ligatures:normal;font-variant-caps:normal;font-variant-numeric:normal;font-feature-settings:normal;text-align:center;writing-mode:lr-tb;text-anchor:middle;fill:#ffffff;fill-opacity:1;stroke:none;stroke-width:0.25078845;stroke-opacity:1"
         id="path914" />
      <path
         d="m 148.59868,144.0667 h 3.21733 q 1.25307,0 2.21262,0.508 0.95956,0.49671 1.49014,1.39982 0.53057,0.89182 0.53057,2.04329 0,1.15146 -0.53057,2.05457 -0.53058,0.89183 -1.49014,1.39983 -0.95955,0.49671 -2.21262,0.49671 h -3.21733 z m 3.17217,7.17973 q 1.03858,0 1.81752,-0.4064 0.77893,-0.41769 1.20791,-1.14018 0.42897,-0.73378 0.42897,-1.68204 0,-0.94827 -0.42897,-1.67076 -0.42898,-0.73378 -1.20791,-1.14018 -0.77894,-0.41769 -1.81752,-0.41769 h -2.3368 v 6.45725 z"
         style="font-style:normal;font-variant:normal;font-weight:normal;font-stretch:normal;font-size:11.28888893px;font-family:Montserrat;-inkscape-font-specification:'Montserrat, Normal';font-variant-ligatures:normal;font-variant-caps:normal;font-variant-numeric:normal;font-feature-settings:normal;text-align:center;writing-mode:lr-tb;text-anchor:middle;fill:#ffffff;fill-opacity:1;stroke:none;stroke-width:0.25078845;stroke-opacity:1"
         id="path916" />
      <path
         d="m 157.92524,144.0667 h 3.21733 q 1.25307,0 2.21262,0.508 0.95956,0.49671 1.49014,1.39982 0.53057,0.89182 0.53057,2.04329 0,1.15146 -0.53057,2.05457 -0.53058,0.89183 -1.49014,1.39983 -0.95955,0.49671 -2.21262,0.49671 h -3.21733 z m 3.17218,7.17973 q 1.03857,0 1.81751,-0.4064 0.77893,-0.41769 1.20791,-1.14018 0.42898,-0.73378 0.42898,-1.68204 0,-0.94827 -0.42898,-1.67076 -0.42898,-0.73378 -1.20791,-1.14018 -0.77894,-0.41769 -1.81751,-0.41769 h -2.3368 v 6.45725 z"
         style="font-style:normal;font-variant:normal;font-weight:normal;font-stretch:normal;font-size:11.28888893px;font-family:Montserrat;-inkscape-font-specification:'Montserrat, Normal';font-variant-ligatures:normal;font-variant-caps:normal;font-variant-numeric:normal;font-feature-settings:normal;text-align:center;writing-mode:lr-tb;text-anchor:middle;fill:#ffffff;fill-opacity:1;stroke:none;stroke-width:0.25078845;stroke-opacity:1"
         id="path918" />
    </g>
    <path
       style="fill:none;stroke:#ffffff;stroke-width:0.5291667;stroke-linecap:butt;stroke-linejoin:miter;stroke-miterlimit:4;stroke-dasharray:none;stroke-opacity:1"
       d="M 64.822916,156.77083 H 46.302083 v -35.71875 h 0.529167 131.7625 v 35.71875 h -18.52083"
       id="path865"
       inkscape:connector-curvature="0"
       inkscape:export-xdpi="96"
       inkscape:export-ydpi="96" />
  </g>
</svg>
