<?xml version="1.0" encoding="UTF-8" standalone="no"?>
<svg
   xmlns:dc="http://purl.org/dc/elements/1.1/"
   xmlns:cc="http://creativecommons.org/ns#"
   xmlns:rdf="http://www.w3.org/1999/02/22-rdf-syntax-ns#"
   xmlns:svg="http://www.w3.org/2000/svg"
   xmlns="http://www.w3.org/2000/svg"
   id="svg8"
   version="1.1"
   viewBox="0 0 105.64098 40.690687"
   height="50.863358mm"
   width="132.05122mm">
  <defs
     id="defs2" />
  <metadata
     id="metadata5">
    <rdf:RDF>
      <cc:Work
         rdf:about="">
        <dc:format>image/svg+xml</dc:format>
        <dc:type
           rdf:resource="http://purl.org/dc/dcmitype/StillImage" />
        <dc:title></dc:title>
      </cc:Work>
    </rdf:RDF>
  </metadata>
  <g
     transform="translate(-69.957234,-100.04257)"
     id="layer1">
    <g
       id="text4520"
       style="font-style:normal;font-weight:normal;font-size:10.58333302px;line-height:1.25;font-family:sans-serif;text-align:center;letter-spacing:0px;word-spacing:0px;text-anchor:middle;fill:#000000;fill-opacity:1;stroke:none;stroke-width:0.26458332"
       aria-label="aesthetics
wallcoverings">
      <path
         id="path4524"
         style="font-style:normal;font-variant:normal;font-weight:100;font-stretch:normal;font-size:25.39999962px;font-family:'Helvetica Neue';-inkscape-font-specification:'Helvetica Neue, Thin';font-variant-ligatures:normal;font-variant-caps:normal;font-variant-numeric:normal;font-feature-settings:normal;text-align:center;writing-mode:lr-tb;text-anchor:middle;fill:#ffffff;fill-opacity:1;stroke-width:0.26458332"
         d="m 79.228234,113.19977 v -2.4384 q -0.2794,0.3048 -0.8382,0.508 -0.5588,0.1778 -1.0922,0.2286 -0.508,0.0508 -1.4224,0.127 -0.889,0.0762 -1.3716,0.1524 -1.8034,0.2032 -2.6924,0.9144 -0.889,0.6858 -0.889,2.1082 0,1.2446 0.889,2.0574 0.889,0.7874 2.54,0.7874 1.2446,0 2.1844,-0.4064 0.9398,-0.4064 1.4224,-0.9398 0.508,-0.5588 0.8128,-1.2446 0.3048,-0.6858 0.381,-1.1176 0.0762,-0.4318 0.0762,-0.7366 z m 0.9652,-4.9784 v 7.5438 q 0,0.508 0.0254,0.7874 0.0254,0.254 0.2286,0.5334 0.2032,0.254 0.6096,0.254 0.254,0 0.7112,-0.0762 v 0.8128 q -0.5588,0.1016 -0.7874,0.1016 -1.0414,0 -1.397,-0.4826 -0.3556,-0.4826 -0.3556,-1.4224 v -0.6858 h -0.0508 q -0.4826,1.2446 -1.778,2.0828 -1.2954,0.8128 -3.0734,0.8128 -4.3688,0 -4.3688,-3.683 0,-0.889 0.3048,-1.5494 0.3048,-0.6858 0.762,-1.0668 0.4572,-0.4064 1.1176,-0.6858 0.6858,-0.2794 1.27,-0.381 0.6096,-0.127 1.3462,-0.1778 1.143,-0.0762 1.8288,-0.1524 0.6858,-0.0762 1.2446,-0.2286 0.5588,-0.1524 0.7874,-0.2794 0.254,-0.1524 0.4064,-0.4826 0.1778,-0.3302 0.2032,-0.635 0.0254,-0.3302 0.0254,-0.9398 0,-0.2794 -0.1778,-0.6604 -0.1524,-0.381 -0.508,-0.8382 -0.3556,-0.4572 -1.143,-0.762 -0.762,-0.3048 -1.8034,-0.3048 -1.778,0 -2.8448,0.9144 -1.0668,0.889 -1.1684,2.5654 h -0.9652 q 0.1016,-2.1336 1.3716,-3.2258 1.27,-1.0922 3.6068,-1.0922 4.572,0 4.572,3.4036 z" />
      <path
         id="path4526"
         style="font-style:normal;font-variant:normal;font-weight:100;font-stretch:normal;font-size:25.39999962px;font-family:'Helvetica Neue';-inkscape-font-specification:'Helvetica Neue, Thin';font-variant-ligatures:normal;font-variant-caps:normal;font-variant-numeric:normal;font-feature-settings:normal;text-align:center;writing-mode:lr-tb;text-anchor:middle;fill:#ffffff;fill-opacity:1;stroke-width:0.26458332"
         d="m 94.188834,111.77737 h -10.541 q -0.0508,2.4638 1.2192,4.1656 1.27,1.7018 3.5814,1.7018 1.8542,0 3.0734,-1.0414 1.2446,-1.0414 1.6002,-2.8448 h 0.9652 q -0.381,2.286 -1.8542,3.5052 -1.4478,1.2192 -3.7846,1.2192 -2.7432,0 -4.2926,-1.8796 -1.524,-1.8796 -1.4732,-4.7244 -0.0508,-2.8956 1.4478,-4.9784 1.524,-2.0828 4.318,-2.0828 2.921,0 4.3942,2.0066 1.4986,1.9812 1.3462,4.953 z m -10.541,-0.8382 h 9.5758 q -0.0508,-2.1844 -1.3462,-3.7338 -1.27,-1.5494 -3.429,-1.5494 -2.0574,0 -3.3528,1.6002 -1.27,1.5748 -1.4478,3.683 z" />
      <path
         id="path4528"
         style="font-style:normal;font-variant:normal;font-weight:100;font-stretch:normal;font-size:25.39999962px;font-family:'Helvetica Neue';-inkscape-font-specification:'Helvetica Neue, Thin';font-variant-ligatures:normal;font-variant-caps:normal;font-variant-numeric:normal;font-feature-settings:normal;text-align:center;writing-mode:lr-tb;text-anchor:middle;fill:#ffffff;fill-opacity:1;stroke-width:0.26458332"
         d="m 95.954928,113.83477 h 0.9652 q 0.1016,1.778 1.2954,2.794 1.2192,1.016 3.022602,1.016 0.7112,0 1.3716,-0.127 0.6604,-0.127 1.3208,-0.4064 0.6604,-0.2794 1.0414,-0.8382 0.4064,-0.5842 0.4064,-1.397 0,-0.9906 -0.6858,-1.6002 -0.6858,-0.635 -1.3462,-0.8382 -0.6604,-0.2032 -2.0828,-0.4826 -0.2286,-0.0508 -0.3556,-0.0762 -1.041402,-0.2032 -1.701802,-0.4064 -0.635,-0.2032 -1.3716,-0.6096 -0.7112,-0.4064 -1.0668,-1.0668 -0.3556,-0.6604 -0.3556,-1.6256 0,-1.2192 0.7366,-2.0066 0.762,-0.7874 1.7526,-1.0668 1.016,-0.2794 2.235202,-0.2794 2.2098,0 3.5052,1.016 1.3208,1.016 1.3208,3.1496 h -0.9652 q -0.0254,-1.7018 -1.0668,-2.5146 -1.0414,-0.8128 -2.794,-0.8128 -1.524002,0 -2.641602,0.635 -1.1176,0.6096 -1.1176,1.8796 0,0.6858 0.3048,1.1938 0.3302,0.4826 0.9144,0.7874 0.6096,0.2794 1.2446,0.4572 0.635002,0.1778 1.473202,0.3556 0.2794,0.0508 0.4064,0.0762 1.143,0.2032 1.8288,0.4318 0.7112,0.2032 1.4224,0.635 0.7112,0.4064 1.0414,1.0922 0.3302,0.6858 0.3302,1.6764 0,1.016 -0.4826,1.7526 -0.4572,0.7366 -1.2446,1.1176 -0.762,0.381 -1.6002,0.5588 -0.8382,0.1778 -1.778,0.1778 -2.311402,0 -3.784602,-1.2192 -1.4478,-1.2192 -1.4986,-3.429 z" />
      <path
         id="path4530"
         style="font-style:normal;font-variant:normal;font-weight:100;font-stretch:normal;font-size:25.39999962px;font-family:'Helvetica Neue';-inkscape-font-specification:'Helvetica Neue, Thin';font-variant-ligatures:normal;font-variant-caps:normal;font-variant-numeric:normal;font-feature-settings:normal;text-align:center;writing-mode:lr-tb;text-anchor:middle;fill:#ffffff;fill-opacity:1;stroke-width:0.26458332"
         d="m 113.46743,105.12257 v 0.8382 h -2.8448 v 9.1186 q 0,1.4732 0.635,1.905 0.6604,0.4064 2.1844,0.3556 v 0.8382 q -0.8382,0.0508 -1.4478,-0.0254 -0.6096,-0.0762 -1.2192,-0.3556 -0.5842,-0.3048 -0.8636,-0.9652 -0.2794,-0.6858 -0.254,-1.7526 v -9.1186 h -2.413 v -0.8382 h 2.413 v -4.064 h 0.9652 v 4.064 z" />
      <path
         id="path4532"
         style="font-style:normal;font-variant:normal;font-weight:100;font-stretch:normal;font-size:25.39999962px;font-family:'Helvetica Neue';-inkscape-font-specification:'Helvetica Neue, Thin';font-variant-ligatures:normal;font-variant-caps:normal;font-variant-numeric:normal;font-feature-settings:normal;text-align:center;writing-mode:lr-tb;text-anchor:middle;fill:#ffffff;fill-opacity:1;stroke-width:0.26458332"
         d="m 115.26488,100.04257 h 0.9652 v 7.874 h 0.0508 q 0.4826,-1.4224 1.778,-2.2606 1.3208,-0.8382 2.8956,-0.8382 1.0922,0 1.9304,0.2794 0.8382,0.254 1.3208,0.762 0.4826,0.4826 0.7874,0.9906 0.3048,0.4826 0.4318,1.1938 0.127,0.7112 0.1524,1.1176 0.0254,0.381 0.0254,0.9398 v 8.0772 h -0.9652 v -8.255 q 0,-4.2672 -3.7084,-4.2672 -2.159,0 -3.429,1.524 -1.27,1.4986 -1.27,3.937 v 7.0612 h -0.9652 z" />
      <path
         id="path4534"
         style="font-style:normal;font-variant:normal;font-weight:100;font-stretch:normal;font-size:25.39999962px;font-family:'Helvetica Neue';-inkscape-font-specification:'Helvetica Neue, Thin';font-variant-ligatures:normal;font-variant-caps:normal;font-variant-numeric:normal;font-feature-settings:normal;text-align:center;writing-mode:lr-tb;text-anchor:middle;fill:#ffffff;fill-opacity:1;stroke-width:0.26458332"
         d="m 139.38297,111.77737 h -10.541 q -0.0508,2.4638 1.2192,4.1656 1.27,1.7018 3.5814,1.7018 1.8542,0 3.0734,-1.0414 1.2446,-1.0414 1.6002,-2.8448 h 0.9652 q -0.381,2.286 -1.8542,3.5052 -1.4478,1.2192 -3.7846,1.2192 -2.7432,0 -4.2926,-1.8796 -1.524,-1.8796 -1.4732,-4.7244 -0.0508,-2.8956 1.4478,-4.9784 1.524,-2.0828 4.318,-2.0828 2.921,0 4.3942,2.0066 1.4986,1.9812 1.3462,4.953 z m -10.541,-0.8382 h 9.5758 q -0.0508,-2.1844 -1.3462,-3.7338 -1.27,-1.5494 -3.429,-1.5494 -2.0574,0 -3.3528,1.6002 -1.27,1.5748 -1.4478,3.683 z" />
      <path
         id="path4536"
         style="font-style:normal;font-variant:normal;font-weight:100;font-stretch:normal;font-size:25.39999962px;font-family:'Helvetica Neue';-inkscape-font-specification:'Helvetica Neue, Thin';font-variant-ligatures:normal;font-variant-caps:normal;font-variant-numeric:normal;font-feature-settings:normal;text-align:center;writing-mode:lr-tb;text-anchor:middle;fill:#ffffff;fill-opacity:1;stroke-width:0.26458332"
         d="m 146.45767,105.12257 v 0.8382 h -2.8448 v 9.1186 q 0,1.4732 0.635,1.905 0.6604,0.4064 2.1844,0.3556 v 0.8382 q -0.8382,0.0508 -1.4478,-0.0254 -0.6096,-0.0762 -1.2192,-0.3556 -0.5842,-0.3048 -0.8636,-0.9652 -0.2794,-0.6858 -0.254,-1.7526 v -9.1186 h -2.413 v -0.8382 h 2.413 v -4.064 h 0.9652 v 4.064 z" />
      <path
         id="path4538"
         style="font-style:normal;font-variant:normal;font-weight:100;font-stretch:normal;font-size:25.39999962px;font-family:'Helvetica Neue';-inkscape-font-specification:'Helvetica Neue, Thin';font-variant-ligatures:normal;font-variant-caps:normal;font-variant-numeric:normal;font-feature-settings:normal;text-align:center;writing-mode:lr-tb;text-anchor:middle;fill:#ffffff;fill-opacity:1;stroke-width:0.26458332"
         d="m 149.44891,118.17817 h -0.9652 v -13.0556 h 0.9652 z m 0,-15.5194 h -0.9652 v -2.6162 h 0.9652 z" />
      <path
         id="path4540"
         style="font-style:normal;font-variant:normal;font-weight:100;font-stretch:normal;font-size:25.39999962px;font-family:'Helvetica Neue';-inkscape-font-specification:'Helvetica Neue, Thin';font-variant-ligatures:normal;font-variant-caps:normal;font-variant-numeric:normal;font-feature-settings:normal;text-align:center;writing-mode:lr-tb;text-anchor:middle;fill:#ffffff;fill-opacity:1;stroke-width:0.26458332"
         d="m 163.31652,109.16117 h -0.9652 q -0.127,-1.6764 -1.3716,-2.5908 -1.2192,-0.9144 -3.048,-0.9144 -2.3368,0 -3.683,1.7526 -1.3462,1.7272 -1.3462,4.1148 0,2.7686 1.2954,4.445 1.2954,1.6764 3.7338,1.6764 1.8034,0 3.048,-1.1176 1.2446,-1.143 1.4986,-2.9464 h 0.9652 q -0.3048,2.286 -1.8288,3.6068 -1.524,1.2954 -3.683,1.2954 -2.9972,0 -4.4958,-1.9812 -1.4986,-2.0066 -1.4986,-4.9784 0,-2.8448 1.6002,-4.7752 1.6002,-1.9304 4.3942,-1.9304 2.2352,0 3.7084,1.1176 1.4732,1.0922 1.6764,3.2258 z" />
      <path
         id="path4542"
         style="font-style:normal;font-variant:normal;font-weight:100;font-stretch:normal;font-size:25.39999962px;font-family:'Helvetica Neue';-inkscape-font-specification:'Helvetica Neue, Thin';font-variant-ligatures:normal;font-variant-caps:normal;font-variant-numeric:normal;font-feature-settings:normal;text-align:center;writing-mode:lr-tb;text-anchor:middle;fill:#ffffff;fill-opacity:1;stroke-width:0.26458332"
         d="m 165.20961,113.83477 h 0.9652 q 0.1016,1.778 1.2954,2.794 1.2192,1.016 3.0226,1.016 0.7112,0 1.3716,-0.127 0.6604,-0.127 1.3208,-0.4064 0.6604,-0.2794 1.0414,-0.8382 0.4064,-0.5842 0.4064,-1.397 0,-0.9906 -0.6858,-1.6002 -0.6858,-0.635 -1.3462,-0.8382 -0.6604,-0.2032 -2.0828,-0.4826 -0.2286,-0.0508 -0.3556,-0.0762 -1.0414,-0.2032 -1.7018,-0.4064 -0.635,-0.2032 -1.3716,-0.6096 -0.7112,-0.4064 -1.0668,-1.0668 -0.3556,-0.6604 -0.3556,-1.6256 0,-1.2192 0.7366,-2.0066 0.762,-0.7874 1.7526,-1.0668 1.016,-0.2794 2.2352,-0.2794 2.2098,0 3.5052,1.016 1.3208,1.016 1.3208,3.1496 h -0.9652 q -0.0254,-1.7018 -1.0668,-2.5146 -1.0414,-0.8128 -2.794,-0.8128 -1.524,0 -2.6416,0.635 -1.1176,0.6096 -1.1176,1.8796 0,0.6858 0.3048,1.1938 0.3302,0.4826 0.9144,0.7874 0.6096,0.2794 1.2446,0.4572 0.635,0.1778 1.4732,0.3556 0.2794,0.0508 0.4064,0.0762 1.143,0.2032 1.8288,0.4318 0.7112,0.2032 1.4224,0.635 0.7112,0.4064 1.0414,1.0922 0.3302,0.6858 0.3302,1.6764 0,1.016 -0.4826,1.7526 -0.4572,0.7366 -1.2446,1.1176 -0.762,0.381 -1.6002,0.5588 -0.8382,0.1778 -1.778,0.1778 -2.3114,0 -3.7846,-1.2192 -1.4478,-1.2192 -1.4986,-3.429 z" />
      <path
         id="path4544"
         style="font-style:normal;font-variant:normal;font-weight:100;font-stretch:normal;font-size:12.69999981px;font-family:'Helvetica Neue';-inkscape-font-specification:'Helvetica Neue, Thin';font-variant-ligatures:normal;font-variant-caps:normal;font-variant-numeric:normal;font-feature-settings:normal;text-align:center;writing-mode:lr-tb;text-anchor:middle;fill:#ffffff;fill-opacity:1;stroke-width:0.26458332"
         d="m 88.131629,131.7151 1.8415,5.969 h 0.0254 l 1.778,-5.969 h 0.6477 l 1.7907,5.969 h 0.0254 l 1.8288,-5.969 h 0.5334 l -2.0955,6.5278 h -0.5969 l -1.7907,-5.9182 h -0.0254 l -1.8034,5.9182 h -0.6096 l -2.0701,-6.5278 z" />
      <path
         id="path4546"
         style="font-style:normal;font-variant:normal;font-weight:100;font-stretch:normal;font-size:12.69999981px;font-family:'Helvetica Neue';-inkscape-font-specification:'Helvetica Neue, Thin';font-variant-ligatures:normal;font-variant-caps:normal;font-variant-numeric:normal;font-feature-settings:normal;text-align:center;writing-mode:lr-tb;text-anchor:middle;fill:#ffffff;fill-opacity:1;stroke-width:0.26458332"
         d="m 101.60792,135.7537 v -1.2192 q -0.1397,0.1524 -0.4191,0.254 -0.2794,0.0889 -0.5461,0.1143 -0.254,0.0254 -0.711204,0.0635 -0.4445,0.0381 -0.6858,0.0762 -0.9017,0.1016 -1.3462,0.4572 -0.4445,0.3429 -0.4445,1.0541 0,0.6223 0.4445,1.0287 0.4445,0.3937 1.27,0.3937 0.6223,0 1.092204,-0.2032 0.4699,-0.2032 0.7112,-0.4699 0.254,-0.2794 0.4064,-0.6223 0.1524,-0.3429 0.1905,-0.5588 0.0381,-0.2159 0.0381,-0.3683 z m 0.4826,-2.4892 v 3.7719 q 0,0.254 0.0127,0.3937 0.0127,0.127 0.1143,0.2667 0.1016,0.127 0.3048,0.127 0.127,0 0.3556,-0.0381 v 0.4064 q -0.2794,0.0508 -0.3937,0.0508 -0.5207,0 -0.6985,-0.2413 -0.1778,-0.2413 -0.1778,-0.7112 v -0.3429 h -0.0254 q -0.2413,0.6223 -0.889,1.0414 -0.6477,0.4064 -1.536704,0.4064 -2.1844,0 -2.1844,-1.8415 0,-0.4445 0.1524,-0.7747 0.1524,-0.3429 0.381,-0.5334 0.2286,-0.2032 0.5588,-0.3429 0.3429,-0.1397 0.635,-0.1905 0.3048,-0.0635 0.6731,-0.0889 0.5715,-0.0381 0.914404,-0.0762 0.3429,-0.0381 0.6223,-0.1143 0.2794,-0.0762 0.3937,-0.1397 0.127,-0.0762 0.2032,-0.2413 0.0889,-0.1651 0.1016,-0.3175 0.0127,-0.1651 0.0127,-0.4699 0,-0.1397 -0.0889,-0.3302 -0.0762,-0.1905 -0.254,-0.4191 -0.1778,-0.2286 -0.5715,-0.381 -0.381,-0.1524 -0.901704,-0.1524 -0.889,0 -1.4224,0.4572 -0.5334,0.4445 -0.5842,1.2827 h -0.4826 q 0.0508,-1.0668 0.6858,-1.6129 0.635,-0.5461 1.8034,-0.5461 2.286004,0 2.286004,1.7018 z" />
      <path
         id="path4548"
         style="font-style:normal;font-variant:normal;font-weight:100;font-stretch:normal;font-size:12.69999981px;font-family:'Helvetica Neue';-inkscape-font-specification:'Helvetica Neue, Thin';font-variant-ligatures:normal;font-variant-caps:normal;font-variant-numeric:normal;font-feature-settings:normal;text-align:center;writing-mode:lr-tb;text-anchor:middle;fill:#ffffff;fill-opacity:1;stroke-width:0.26458332"
         d="m 103.74152,129.1751 h 0.4826 v 9.0678 h -0.4826 z" />
      <path
         id="path4550"
         style="font-style:normal;font-variant:normal;font-weight:100;font-stretch:normal;font-size:12.69999981px;font-family:'Helvetica Neue';-inkscape-font-specification:'Helvetica Neue, Thin';font-variant-ligatures:normal;font-variant-caps:normal;font-variant-numeric:normal;font-feature-settings:normal;text-align:center;writing-mode:lr-tb;text-anchor:middle;fill:#ffffff;fill-opacity:1;stroke-width:0.26458332"
         d="m 105.87472,129.1751 h 0.4826 v 9.0678 h -0.4826 z" />
      <path
         id="path4552"
         style="font-style:normal;font-variant:normal;font-weight:100;font-stretch:normal;font-size:12.69999981px;font-family:'Helvetica Neue';-inkscape-font-specification:'Helvetica Neue, Thin';font-variant-ligatures:normal;font-variant-caps:normal;font-variant-numeric:normal;font-feature-settings:normal;text-align:center;writing-mode:lr-tb;text-anchor:middle;fill:#ffffff;fill-opacity:1;stroke-width:0.26458332"
         d="m 113.29112,133.7344 h -0.4826 q -0.0635,-0.8382 -0.6858,-1.2954 -0.6096,-0.4572 -1.524,-0.4572 -1.1684,0 -1.8415,0.8763 -0.6731,0.8636 -0.6731,2.0574 0,1.3843 0.6477,2.2225 0.6477,0.8382 1.8669,0.8382 0.9017,0 1.524,-0.5588 0.6223,-0.5715 0.7493,-1.4732 h 0.4826 q -0.1524,1.143 -0.9144,1.8034 -0.762,0.6477 -1.8415,0.6477 -1.4986,0 -2.2479,-0.9906 -0.7493,-1.0033 -0.7493,-2.4892 0,-1.4224 0.8001,-2.3876 0.8001,-0.9652 2.1971,-0.9652 1.1176,0 1.8542,0.5588 0.7366,0.5461 0.8382,1.6129 z" />
      <path
         id="path4554"
         style="font-style:normal;font-variant:normal;font-weight:100;font-stretch:normal;font-size:12.69999981px;font-family:'Helvetica Neue';-inkscape-font-specification:'Helvetica Neue, Thin';font-variant-ligatures:normal;font-variant-caps:normal;font-variant-numeric:normal;font-feature-settings:normal;text-align:center;writing-mode:lr-tb;text-anchor:middle;fill:#ffffff;fill-opacity:1;stroke-width:0.26458332"
         d="m 114.98697,137.4174 q -0.8001,-0.9906 -0.8001,-2.4384 0,-1.4478 0.8001,-2.4257 0.8128,-0.9906 2.1971,-0.9906 1.3843,0 2.1844,0.9906 0.8128,0.9779 0.8128,2.4257 0,1.4478 -0.8128,2.4384 -0.8001,0.9779 -2.1844,0.9779 -1.3843,0 -2.1971,-0.9779 z m 0.3556,-4.5593 q -0.6731,0.8763 -0.6731,2.1209 0,1.2446 0.6731,2.1209 0.6731,0.8763 1.8415,0.8763 1.1684,0 1.8415,-0.8763 0.6731,-0.8763 0.6731,-2.1209 0,-1.2446 -0.6731,-2.1209 -0.6731,-0.8763 -1.8415,-0.8763 -1.1684,0 -1.8415,0.8763 z" />
      <path
         id="path4556"
         style="font-style:normal;font-variant:normal;font-weight:100;font-stretch:normal;font-size:12.69999981px;font-family:'Helvetica Neue';-inkscape-font-specification:'Helvetica Neue, Thin';font-variant-ligatures:normal;font-variant-caps:normal;font-variant-numeric:normal;font-feature-settings:normal;text-align:center;writing-mode:lr-tb;text-anchor:middle;fill:#ffffff;fill-opacity:1;stroke-width:0.26458332"
         d="m 126.26596,131.7151 -2.4638,6.5278 h -0.5969 l -2.6289,-6.5278 h 0.5588 l 2.3622,5.969 h 0.0254 l 2.2098,-5.969 z" />
      <path
         id="path4558"
         style="font-style:normal;font-variant:normal;font-weight:100;font-stretch:normal;font-size:12.69999981px;font-family:'Helvetica Neue';-inkscape-font-specification:'Helvetica Neue, Thin';font-variant-ligatures:normal;font-variant-caps:normal;font-variant-numeric:normal;font-feature-settings:normal;text-align:center;writing-mode:lr-tb;text-anchor:middle;fill:#ffffff;fill-opacity:1;stroke-width:0.26458332"
         d="m 132.40462,135.0425 h -5.2705 q -0.0254,1.2319 0.6096,2.0828 0.635,0.8509 1.7907,0.8509 0.9271,0 1.5367,-0.5207 0.6223,-0.5207 0.8001,-1.4224 h 0.4826 q -0.1905,1.143 -0.9271,1.7526 -0.7239,0.6096 -1.8923,0.6096 -1.3716,0 -2.1463,-0.9398 -0.762,-0.9398 -0.7366,-2.3622 -0.0254,-1.4478 0.7239,-2.4892 0.762,-1.0414 2.159,-1.0414 1.4605,0 2.1971,1.0033 0.7493,0.9906 0.6731,2.4765 z m -5.2705,-0.4191 h 4.7879 q -0.0254,-1.0922 -0.6731,-1.8669 -0.635,-0.7747 -1.7145,-0.7747 -1.0287,0 -1.6764,0.8001 -0.635,0.7874 -0.7239,1.8415 z" />
      <path
         id="path4560"
         style="font-style:normal;font-variant:normal;font-weight:100;font-stretch:normal;font-size:12.69999981px;font-family:'Helvetica Neue';-inkscape-font-specification:'Helvetica Neue, Thin';font-variant-ligatures:normal;font-variant-caps:normal;font-variant-numeric:normal;font-feature-settings:normal;text-align:center;writing-mode:lr-tb;text-anchor:middle;fill:#ffffff;fill-opacity:1;stroke-width:0.26458332"
         d="m 134.02427,131.7151 v 1.4478 h 0.0381 q 0.1905,-0.6477 0.9017,-1.0795 0.7239,-0.4445 1.6002,-0.4064 v 0.4826 q -1.0287,-0.127 -1.8034,0.635 -0.381,0.3937 -0.5461,0.7874 -0.1524,0.381 -0.1905,1.0922 v 3.5687 h -0.4826 v -6.5278 z" />
      <path
         id="path4562"
         style="font-style:normal;font-variant:normal;font-weight:100;font-stretch:normal;font-size:12.69999981px;font-family:'Helvetica Neue';-inkscape-font-specification:'Helvetica Neue, Thin';font-variant-ligatures:normal;font-variant-caps:normal;font-variant-numeric:normal;font-feature-settings:normal;text-align:center;writing-mode:lr-tb;text-anchor:middle;fill:#ffffff;fill-opacity:1;stroke-width:0.26458332"
         d="m 137.66083,138.2429 h -0.4826 v -6.5278 h 0.4826 z m 0,-7.7597 h -0.4826 v -1.3081 h 0.4826 z" />
      <path
         id="path4564"
         style="font-style:normal;font-variant:normal;font-weight:100;font-stretch:normal;font-size:12.69999981px;font-family:'Helvetica Neue';-inkscape-font-specification:'Helvetica Neue, Thin';font-variant-ligatures:normal;font-variant-caps:normal;font-variant-numeric:normal;font-feature-settings:normal;text-align:center;writing-mode:lr-tb;text-anchor:middle;fill:#ffffff;fill-opacity:1;stroke-width:0.26458332"
         d="m 139.19714,138.2429 v -6.5278 h 0.4826 v 1.397 h 0.0254 q 0.2413,-0.7112 0.889,-1.1303 0.6604,-0.4191 1.4478,-0.4191 0.5461,0 0.9652,0.1397 0.4191,0.127 0.6604,0.381 0.2413,0.2413 0.3937,0.4953 0.1524,0.2413 0.2159,0.5969 0.0635,0.3556 0.0762,0.5588 0.0127,0.1905 0.0127,0.4699 v 4.0386 h -0.4826 v -4.1275 q 0,-2.1336 -1.8542,-2.1336 -1.0795,0 -1.7145,0.762 -0.635,0.7493 -0.635,1.9685 v 3.5306 z" />
      <path
         id="path4566"
         style="font-style:normal;font-variant:normal;font-weight:100;font-stretch:normal;font-size:12.69999981px;font-family:'Helvetica Neue';-inkscape-font-specification:'Helvetica Neue, Thin';font-variant-ligatures:normal;font-variant-caps:normal;font-variant-numeric:normal;font-feature-settings:normal;text-align:center;writing-mode:lr-tb;text-anchor:middle;fill:#ffffff;fill-opacity:1;stroke-width:0.26458332"
         d="m 148.32248,131.9818 q -1.1176,0 -1.7272,0.8382 -0.6096,0.8255 -0.6096,1.9558 0,1.2065 0.6096,2.0066 0.6223,0.8001 1.7272,0.8001 1.1303,0 1.7526,-0.8128 0.6223,-0.8128 0.6223,-1.9939 0,-1.1811 -0.6223,-1.9812 -0.6096,-0.8128 -1.7526,-0.8128 z m 2.3876,-0.2667 h 0.4826 V 137.9 q 0,0.1778 -0.0127,0.3302 0,0.1397 -0.0635,0.4572 -0.0508,0.3302 -0.1524,0.5715 -0.0889,0.254 -0.3048,0.5461 -0.2032,0.3048 -0.4953,0.4953 -0.2794,0.2032 -0.7493,0.3175 -0.4572,0.127 -1.0414,0.1143 -2.4511,0 -2.5527,-2.032 h 0.4826 q 0.0762,0.8255 0.6477,1.2192 0.5715,0.3937 1.4351,0.3937 0.6477,0 1.1176,-0.2159 0.4699,-0.2032 0.6858,-0.4699 0.2286,-0.254 0.3556,-0.635 0.127,-0.3683 0.1397,-0.5715 0.0254,-0.1905 0.0254,-0.4064 v -1.4986 h -0.0254 q -0.6985,1.4859 -2.3622,1.4859 -1.3843,0 -2.1082,-0.889 -0.7112,-0.9017 -0.7112,-2.3368 0,-1.3589 0.7493,-2.286 0.7493,-0.9271 2.0701,-0.9271 0.7874,0 1.4478,0.4064 0.6604,0.3937 0.9144,1.1049 h 0.0254 z" />
      <path
         id="path4568"
         style="font-style:normal;font-variant:normal;font-weight:100;font-stretch:normal;font-size:12.69999981px;font-family:'Helvetica Neue';-inkscape-font-specification:'Helvetica Neue, Thin';font-variant-ligatures:normal;font-variant-caps:normal;font-variant-numeric:normal;font-feature-settings:normal;text-align:center;writing-mode:lr-tb;text-anchor:middle;fill:#ffffff;fill-opacity:1;stroke-width:0.26458332"
         d="m 152.36247,136.0712 h 0.4826 q 0.0508,0.889 0.6477,1.397 0.6096,0.508 1.5113,0.508 0.3556,0 0.6858,-0.0635 0.3302,-0.0635 0.6604,-0.2032 0.3302,-0.1397 0.5207,-0.4191 0.2032,-0.2921 0.2032,-0.6985 0,-0.4953 -0.3429,-0.8001 -0.3429,-0.3175 -0.6731,-0.4191 -0.3302,-0.1016 -1.0414,-0.2413 -0.1143,-0.0254 -0.1778,-0.0381 -0.5207,-0.1016 -0.8509,-0.2032 -0.3175,-0.1016 -0.6858,-0.3048 -0.3556,-0.2032 -0.5334,-0.5334 -0.1778,-0.3302 -0.1778,-0.8128 0,-0.6096 0.3683,-1.0033 0.381,-0.3937 0.8763,-0.5334 0.508,-0.1397 1.1176,-0.1397 1.1049,0 1.7526,0.508 0.6604,0.508 0.6604,1.5748 h -0.4826 q -0.0127,-0.8509 -0.5334,-1.2573 -0.5207,-0.4064 -1.397,-0.4064 -0.762,0 -1.3208,0.3175 -0.5588,0.3048 -0.5588,0.9398 0,0.3429 0.1524,0.5969 0.1651,0.2413 0.4572,0.3937 0.3048,0.1397 0.6223,0.2286 0.3175,0.0889 0.7366,0.1778 0.1397,0.0254 0.2032,0.0381 0.5715,0.1016 0.9144,0.2159 0.3556,0.1016 0.7112,0.3175 0.3556,0.2032 0.5207,0.5461 0.1651,0.3429 0.1651,0.8382 0,0.508 -0.2413,0.8763 -0.2286,0.3683 -0.6223,0.5588 -0.381,0.1905 -0.8001,0.2794 -0.4191,0.0889 -0.889,0.0889 -1.1557,0 -1.8923,-0.6096 -0.7239,-0.6096 -0.7493,-1.7145 z" />
    </g>
  </g>
</svg>
