<?xml version="1.0" encoding="UTF-8"?>
<svg width="130px" height="20px" viewBox="0 0 112 16" version="1.1" xmlns="http://www.w3.org/2000/svg" xmlns:xlink="http://www.w3.org/1999/xlink">
    <!-- Generator: Sketch 43.2 (39069) - http://www.bohemiancoding.com/sketch -->
    <title>Castel_LOGO_BLACK</title>
    <desc>Created with Sketch.</desc>
    <defs></defs>
    <g id="Navigation-Header" stroke="none" stroke-width="1" fill="none" fill-rule="evenodd">
        <g id="Mobile-Portrait" transform="translate(-34.000000, -34.000000)" fill="white">
            <g id="Header">
                <path d="M47.4845244,44.4738287 C47.1311546,45.8166339 46.618776,46.8802611 45.9473734,47.6647421 C45.297173,48.4280209 44.560408,48.9951709 43.7370563,49.3662092 C42.9137047,49.7372475 41.9755219,49.9227638 40.9224799,49.9227638 C39.8906401,49.9227638 38.94539,49.7354807 38.0867014,49.3609087 C37.2280127,48.9863367 36.4947814,48.4580567 35.8869853,47.776053 C35.2791893,47.0940493 34.8127481,46.2795441 34.4876479,45.332513 C34.1625477,44.3854819 34,43.3324557 34,42.1734027 C34,40.5620364 34.279158,39.1344438 34.8374823,37.8905821 C35.3958065,36.6467204 36.1855762,35.6873358 37.206815,35.0123994 C38.2280537,34.3374631 39.4029907,34 40.7316611,34 C42.0037924,34 43.1168906,34.3851673 44.0709891,35.1555135 C44.4667633,35.4806137 44.8660652,35.8799156 45.2689068,36.3534311 L45.2689068,34.3074302 L47.1982963,34.3074302 L47.1982963,39.6079508 L45.2689068,39.6079508 C45.1558284,39.1556374 45.040985,38.7987393 44.9243729,38.5372456 C44.8077609,38.275752 44.6328455,38.0036613 44.3996214,37.7209655 C44.0038472,37.2121129 43.517971,36.8198783 42.9419782,36.5442499 C42.3659854,36.2686214 41.7387634,36.1308093 41.0602934,36.1308093 C40.1980711,36.1308093 39.4383374,36.3834649 38.7810696,36.8887837 C38.1238017,37.3941025 37.6149568,38.1078988 37.2545196,39.030194 C36.8940824,39.9524892 36.7138665,41.0143496 36.7138665,42.2158069 C36.7138665,43.3536577 36.8905488,44.3377778 37.2439186,45.1681969 C37.5972884,45.9986159 38.1061333,46.6364389 38.7704685,47.0816848 C39.4348038,47.5269308 40.2122057,47.7495504 41.1026976,47.7495504 C41.7953024,47.7495504 42.436659,47.574635 43.0267866,47.2247989 C43.6169141,46.8749628 44.095723,46.3820193 44.4632276,45.7459536 C44.6469799,45.449123 44.8377968,45.0250856 45.0356839,44.4738287 L47.4845244,44.4738287 Z M69.280265,49.6153336 L66.2271652,49.6153336 L64.9868434,45.841363 L59.2516801,45.841363 L58.0113583,49.6153336 L54.9582584,49.6153336 L54.9582584,47.6223379 L56.2303833,47.6223379 L60.6828206,34.3074302 L63.5345007,34.3074302 L67.976337,47.6223379 L69.280265,47.6223379 L69.280265,49.6153336 Z M64.3295788,43.8801704 L62.0927591,36.9576905 L59.8877425,43.8801704 L64.3295788,43.8801704 Z M88.584761,45.0992901 C88.584761,46.0039168 88.3709755,46.8254893 87.943398,47.5640322 C87.5158205,48.3025751 86.9204014,48.880326 86.1571226,49.2973024 C85.3938438,49.7142788 84.545769,49.9227638 83.6128727,49.9227638 C82.8637287,49.9227638 82.2064707,49.8061536 81.641079,49.5729295 C81.0756873,49.3397054 80.5880443,49.0446461 80.1781354,48.6877425 C79.7682264,48.330839 79.3194535,47.8873666 78.8318031,47.3573119 L78.8318031,49.6153336 L76.8812115,49.6153336 L76.8812115,44.7282537 L78.810601,44.7282537 C79.1427687,45.2936454 79.4643304,45.7742211 79.7752958,46.1699953 C80.0862612,46.5657695 80.5244332,46.9244344 81.0898249,47.2460009 C81.6552166,47.5675675 82.3301428,47.7283483 83.1146238,47.7283483 C83.7365546,47.7283483 84.2772023,47.6258726 84.7365831,47.4209181 C85.1959638,47.2159636 85.5493283,46.9262047 85.7966872,46.5516327 C86.044046,46.1770608 86.1677236,45.7353551 86.1677236,45.2265026 C86.1677236,44.590437 85.9769068,44.1010271 85.5952674,43.7582584 C85.213628,43.4154897 84.7807565,43.1858028 84.2966398,43.0691907 C83.8125232,42.9525787 83.1923685,42.8554034 82.4361571,42.7776621 C81.2064302,42.6575164 80.3088844,42.491435 79.7434927,42.2794132 C78.9802139,41.9755151 78.4395662,41.6504198 78.1215334,41.3041174 C77.3370524,40.477232 76.9448178,39.4984123 76.9448178,38.367629 C76.9448178,37.7739677 77.0667285,37.2050508 77.3105537,36.6608613 C77.5543789,36.1166718 77.9042097,35.6449302 78.3600568,35.2456223 C78.8159038,34.8463145 79.3441838,34.5388873 79.9449124,34.3233318 C80.5456411,34.1077762 81.1958318,34 81.895504,34 C82.7647937,34 83.4997919,34.1678481 84.1005206,34.5035495 C84.7012493,34.8392508 85.2984353,35.2827232 85.8920965,35.8339801 L85.8920965,34.3074302 L87.821486,34.3074302 L87.821486,38.6962612 L85.9132986,38.6962612 C85.651805,38.1167348 85.3691134,37.6679618 85.0652153,37.349929 C84.2312626,36.4947741 83.2595102,36.067203 82.149929,36.067203 C81.6128069,36.067203 81.114563,36.1608446 80.6551822,36.3481306 C80.1958015,36.5354166 79.8353697,36.7933727 79.573876,37.1220066 C79.3123823,37.4506405 79.1816375,37.8163728 79.1816375,38.2192144 C79.1816375,38.5443146 79.2752791,38.8376071 79.4625651,39.0991008 C79.6498511,39.3605945 79.909574,39.5726132 80.2417416,39.7351633 C80.5668418,39.8765112 80.9096054,39.9860542 81.2700426,40.0637956 C81.6304798,40.1415369 82.1075219,40.2122098 82.7011832,40.2758164 C83.8248991,40.4030295 84.7577814,40.5938463 85.499858,40.8482726 C86.5953044,41.2157772 87.3833073,41.8111964 87.8638902,42.634548 C88.3444731,43.4578997 88.584761,44.2794722 88.584761,45.0992901 Z M107.751443,40.1061997 L105.822054,40.1061997 L105.822054,36.311027 L103.2354,36.311027 L103.2354,47.6223379 L104.973971,47.6223379 L104.973971,49.6153336 L99.0479886,49.6153336 L99.0479886,47.6223379 L100.807761,47.6223379 L100.807761,36.311027 L98.2211074,36.311027 L98.2211074,40.0425935 L96.2917179,40.0425935 L96.2917179,34.3074302 L107.751443,34.3074302 L107.751443,40.1061997 Z M127.098344,49.6153336 L115.437198,49.6153336 L115.437198,47.6223379 L116.931945,47.6223379 L116.931945,36.311027 L115.437198,36.311027 L115.437198,34.3074302 L126.790913,34.3074302 L126.790913,38.9294841 L124.702508,38.9294841 L124.702508,36.311027 L119.391387,36.311027 L119.391387,40.7316611 L124.638902,40.7316611 L124.638902,42.7140558 L119.391387,42.7140558 L119.391387,47.6223379 L125.009938,47.6223379 L125.009938,44.7282537 L127.098344,44.7282537 L127.098344,49.6153336 Z M146,49.6153336 L134.911311,49.6153336 L134.911311,47.6223379 L136.448462,47.6223379 L136.448462,36.311027 L134.932513,36.311027 L134.932513,34.3074302 L140.40265,34.3074302 L140.40265,36.311027 L138.8761,36.311027 L138.8761,47.6223379 L143.890393,47.6223379 L143.890393,44.7494558 L146,44.7494558 L146,49.6153336 Z" id="Castel_LOGO_WHITE"></path>
            </g>
        </g>
    </g>
</svg>