<?xml version="1.0" encoding="UTF-8" standalone="no"?>
<svg
   xmlns:dc="http://purl.org/dc/elements/1.1/"
   xmlns:cc="http://creativecommons.org/ns#"
   xmlns:rdf="http://www.w3.org/1999/02/22-rdf-syntax-ns#"
   xmlns:svg="http://www.w3.org/2000/svg"
   xmlns="http://www.w3.org/2000/svg"
   xmlns:sodipodi="http://sodipodi.sourceforge.net/DTD/sodipodi-0.dtd"
   xmlns:inkscape="http://www.inkscape.org/namespaces/inkscape"
   version="1.0"
   width="225pt"
   height="61.944553pt"
   viewBox="0 0 225 61.944553"
   preserveAspectRatio="xMidYMid meet"
   id="svg977"
   sodipodi:docname="charles-logo.svg"
   inkscape:version="0.92.3 (2405546, 2018-03-11)">
  <defs
     id="defs981" />
  <sodipodi:namedview
     pagecolor="#000000"
     bordercolor="#666666"
     borderopacity="1"
     objecttolerance="10"
     gridtolerance="10"
     guidetolerance="10"
     inkscape:pageopacity="0"
     inkscape:pageshadow="2"
     inkscape:window-width="1920"
     inkscape:window-height="1017"
     id="namedview979"
     showgrid="false"
     inkscape:pagecheckerboard="true"
     fit-margin-top="0"
     fit-margin-left="0"
     fit-margin-right="0"
     fit-margin-bottom="0"
     inkscape:zoom="2.53"
     inkscape:cx="116.17031"
     inkscape:cy="89.670548"
     inkscape:window-x="-8"
     inkscape:window-y="-8"
     inkscape:window-maximized="1"
     inkscape:current-layer="g975" />
  <metadata
     id="metadata899">
Created by potrace 1.15, written by Peter Selinger 2001-2017
<rdf:RDF>
  <cc:Work
     rdf:about="">
    <dc:format>image/svg+xml</dc:format>
    <dc:type
       rdf:resource="http://purl.org/dc/dcmitype/StillImage" />
    <dc:title></dc:title>
  </cc:Work>
</rdf:RDF>
</metadata>
  <g
     transform="matrix(0.1,0,0,-0.1,-1970.4249,774.82879)"
     id="g975"
     style="fill:#000000;stroke:none">
    <path
       id="path973"
       style="fill:#ffffff;fill-opacity:1;stroke-width:0.06644003"
       d="m 20879.129,7303.7875 v -27.9049 h 9.301 9.302 v 27.9049 27.9048 h -9.302 -9.301 z m -133.545,0 v -27.9049 h 9.302 9.301 l 0.133,10.7633 0.2,10.7633 9.168,-10.7633 9.169,-10.7633 h 11.76 11.76 l -11.627,11.6271 c -9.7,9.7666 -11.361,11.627 -9.966,11.627 2.724,0 8.172,2.9233 10.763,5.8467 6.644,7.3748 4.319,18.4703 -4.983,23.1876 -5.448,2.724 -11.693,3.4548 -29.167,3.5213 h -15.813 z m 28.702,15.8127 c 6.511,-1.9268 6.977,-9.5009 0.731,-11.8928 -0.864,-0.3322 -3.654,-0.7973 -6.245,-0.9966 l -4.585,-0.4651 v 7.1091 7.0427 h 3.721 c 2.06,0 4.917,-0.3322 6.378,-0.7973 z m -168.093,-15.8127 -14.218,-27.9713 10.232,0.1993 10.165,0.1993 2.525,4.8502 2.524,4.7837 h 13.089 13.155 l 2.459,-4.9831 2.458,-4.983 h 9.966 c 5.448,0 9.966,0.1329 9.966,0.3322 0,0.1994 -6.179,12.7565 -13.753,27.9049 l -13.82,27.5726 h -10.298 -10.298 z m 28.569,1.5281 3.787,-8.5043 -7.707,-0.1994 c -4.252,-0.066 -7.773,-0.066 -7.906,0.066 -0.332,0.3322 7.308,17.0751 7.773,17.0751 0.2,0 2.06,-3.7871 4.053,-8.4379 z m -166.233,-1.4617 v -27.9713 h 9.302 9.302 v 9.2352 9.2352 l 10.165,0.3322 c 11.095,0.3322 14.75,1.1295 19.932,4.4515 4.318,2.724 6.71,7.707 6.71,13.9524 0,8.305 -4.385,13.7531 -13.421,16.6764 -4.052,1.3288 -6.178,1.5281 -23.187,1.7939 l -18.803,0.2658 z m 32.224,14.8161 c 2.857,-1.3288 4.053,-4.1857 3.255,-7.4413 -0.93,-3.5877 -3.455,-4.7836 -10.697,-4.983 l -5.846,-0.1328 -0.2,6.8433 -0.199,6.7769 h 5.78 c 3.787,0 6.445,-0.3322 7.907,-1.0631 z m 492.785,14.6168 c -4.517,-1.1959 -6.909,-2.4582 -10.165,-5.3816 -4.584,-4.1857 -6.445,-9.6338 -5.182,-15.4805 1.329,-6.2454 5.847,-9.1023 18.669,-11.9592 7.641,-1.7275 10.099,-2.7905 11.561,-4.983 0.864,-1.3288 0.997,-2.0597 0.399,-3.322 -1.263,-2.7905 -4.319,-3.7871 -10.365,-3.5214 -4.584,0.1329 -6.179,0.598 -10.497,2.6576 l -5.116,2.4583 -3.721,-5.2487 c -1.993,-2.857 -3.654,-5.4481 -3.654,-5.8468 0,-0.8637 5.78,-3.2555 11.826,-4.9165 6.644,-1.7275 18.537,-1.9268 24.516,-0.3322 8.571,2.2589 14.617,6.8433 16.079,12.2249 0.997,3.5878 0.864,9.8996 -0.199,12.0921 -2.392,4.5844 -7.907,7.5077 -18.803,10.0325 -7.441,1.7274 -10.032,2.9233 -10.896,4.9165 -0.93,2.0597 0,3.4549 3.189,4.8501 3.92,1.5946 9.435,0.9302 16.278,-2.0596 0.864,-0.3986 1.86,0.598 4.451,4.5179 1.861,2.7241 3.389,5.2488 3.389,5.6474 0,0.3322 -1.395,1.1295 -3.189,1.661 -8.903,2.9898 -21.66,3.8536 -28.57,1.9932 z m -197.858,288.2169 c 0.199,-0.3322 1.329,-0.7973 2.458,-1.063 1.13,-0.1994 3.189,-1.5282 4.585,-2.9234 4.983,-4.983 4.717,3.7206 4.518,-123.7778 l -0.2,-113.8782 -1.594,-3.2556 c -1.595,-3.2555 -6.312,-7.0426 -8.837,-7.0426 -0.664,0 -1.196,-0.2658 -1.196,-0.6644 0,-0.4651 14.418,-0.6644 41.858,-0.6644 37.605,0 46.042,0.3322 40.063,1.5281 -2.99,0.598 -6.378,3.322 -8.172,6.4447 l -1.661,2.9898 -0.2,44.3819 -0.199,44.382 31.094,-0.1993 c 30.43,-0.2658 31.227,-0.2658 35.745,-1.7939 14.284,-4.7173 30.629,-16.3443 44.448,-31.6255 6.511,-7.2419 31.227,-36.4091 56.806,-67.1044 10.365,-12.4243 21.859,-25.7123 25.58,-29.4329 29.366,-30.0309 65.244,-49.365 102.052,-55.0124 9.501,-1.4617 30.562,-1.661 40.395,-0.3322 3.721,0.4651 6.91,1.063 7.109,1.3288 0.133,0.2658 -1.528,1.0631 -3.72,1.7275 -15.547,4.6508 -41.592,23.8519 -77.004,56.6733 -19.467,18.0052 -55.411,53.75 -71.357,70.8251 -30.496,32.622 -42.92,43.5846 -58.534,51.3581 -5.913,2.9898 -8.903,4.0529 -14.284,5.1823 l -3.654,0.7973 6.311,0.4651 c 17.806,1.3288 28.37,3.1891 39.931,7.0426 29.765,9.8996 46.973,29.3001 51.159,57.8029 1.129,7.7735 0.398,23.3204 -1.329,30.4959 -6.91,27.5727 -27.241,44.7142 -61.524,51.8233 -18.536,3.7871 -13.487,3.6542 -121.452,3.8535 -59.331,0.1329 -99.394,0 -99.195,-0.3322 z m 184.438,-31.6255 c 3.056,-0.5979 8.305,-1.9932 11.627,-3.1226 20.463,-6.8434 30.496,-21.9917 29.366,-44.4484 -0.664,-13.0887 -3.721,-20.5964 -11.361,-28.3035 -7.176,-7.1755 -15.879,-11.0955 -31.293,-14.0188 -4.452,-0.8637 -14.285,-1.1295 -58.601,-1.3288 l -53.351,-0.2658 v 46.5745 46.5744 l 54.016,-0.2657 c 47.504,-0.1993 54.614,-0.3987 59.597,-1.3953 z m 443.819,32.2235 c 0,-0.3322 0.93,-0.7309 2.126,-0.9966 3.056,-0.598 6.179,-3.2556 7.906,-6.8434 l 1.595,-3.1891 V 7495.467 7379.8613 l -1.927,-3.5213 c -1.993,-3.5213 -4.518,-5.6474 -7.84,-6.4447 -1.063,-0.2658 -1.86,-0.7308 -1.86,-1.063 0,-0.3322 47.106,-0.598 112.616,-0.598 h 112.616 l -0.07,28.4363 v 28.3699 l -1.329,-2.9898 c -1.661,-3.7206 -3.454,-5.7138 -6.909,-7.5077 l -2.658,-1.4617 -71.556,-0.1993 -71.622,-0.1329 v 33.22 33.22 l 60.66,-0.1328 60.593,-0.1994 2.724,-1.4616 c 3.322,-1.7939 6.179,-5.0495 6.71,-7.5742 1.196,-5.9132 1.528,1.2624 1.528,30.2967 0,29.3664 -0.332,36.2098 -1.594,30.0973 -0.598,-3.0563 -5.448,-7.4413 -9.235,-8.3715 -2.193,-0.5979 -19.666,-0.7972 -62.188,-0.7972 h -59.198 v 29.898 29.898 l 69.629,-0.1329 c 68.898,-0.1993 69.563,-0.1993 72.552,-1.5945 3.522,-1.661 6.977,-5.3152 7.641,-8.1722 1.262,-5.8467 1.661,-0.1329 1.661,24.8486 v 26.9082 h -111.287 c -63.118,0 -111.287,-0.2657 -111.287,-0.5979 z m -276.391,0 c 0,-0.3322 0.864,-0.7309 1.927,-0.9302 2.658,-0.5315 6.644,-4.1857 8.106,-7.4413 1.196,-2.5247 1.262,-7.8399 1.262,-118.2632 0,-110.4234 -0.07,-115.7386 -1.262,-118.2633 -1.462,-3.2556 -5.448,-6.9098 -8.106,-7.4413 -1.063,-0.1993 -1.927,-0.5979 -1.927,-0.9301 0,-0.3322 49.565,-0.598 114.61,-0.598 h 114.609 l -0.07,28.4363 v 28.3699 l -1.329,-2.9898 c -1.661,-3.7206 -3.455,-5.7138 -6.909,-7.5077 l -2.658,-1.4617 -73.948,-0.1993 -73.881,-0.1329 0.133,98.7963 0.199,98.8628 1.86,3.8535 c 1.396,2.857 2.592,4.1858 4.718,5.4481 1.594,0.9302 3.322,1.661 3.92,1.661 0.664,0 1.129,0.3322 1.129,0.6644 0,0.4651 -14.152,0.6644 -41.193,0.6644 -23.121,0 -41.193,-0.2657 -41.193,-0.5979 z m -522.019,-7.242 c -5.581,-5.4481 -30.828,-34.3495 -83.249,-95.4743 -175.003,-204.1038 -194.869,-227.1585 -205.233,-238.852 l -10.897,-12.2914 -24.981,-0.3986 c -25.978,-0.4651 -38.27,-1.4617 -55.876,-4.5844 -44.515,-7.9728 -77.801,-25.1143 -88.565,-45.7107 -5.714,-10.8297 -4.451,-20.4635 3.787,-29.2336 14.684,-15.6799 40.529,-19.7991 70.693,-11.3613 30.894,8.7037 69.429,32.2235 108.695,66.3072 l 7.84,6.8433 3.721,-0.4651 c 15.547,-1.8603 54.68,-9.4345 84.844,-16.3442 42.455,-9.8331 72.353,-17.9388 140.653,-38.4024 79.729,-23.9184 115.407,-33.0206 164.639,-42.1894 66.639,-12.3578 127.897,-19.5998 195.001,-23.0547 20.397,-1.063 78.865,-1.063 97.003,-0.066 89.694,5.1823 156.798,20.1978 213.272,47.7039 11.295,5.4481 27.108,14.2182 26.643,14.6833 -0.133,0.1329 -2.459,-0.598 -5.116,-1.661 -28.237,-11.2284 -74.214,-19.4669 -131.817,-23.7191 -39.266,-2.8569 -95.076,-4.2522 -123.18,-3.1227 -34.682,1.4617 -69.363,5.0495 -120.522,12.4907 -56.474,8.1722 -103.447,16.2778 -237.856,41.1929 -135.537,25.0478 -188.689,34.1501 -244.299,41.7243 -13.886,1.9268 -45.113,5.7138 -46.841,5.7138 -0.265,0 4.917,5.3152 11.428,11.8264 19.334,19.2676 31.227,32.3563 84.578,93.3482 27.971,31.8912 52.023,58.9988 53.551,60.1282 5.581,4.3186 2.126,4.1193 70.758,4.1193 h 62.388 v -26.7089 -26.7753 l -1.595,-3.3884 c -1.661,-3.5878 -4.85,-6.5112 -7.906,-7.242 -0.997,-0.2658 -1.994,-0.7308 -2.193,-1.063 -0.199,-0.3322 17.142,-0.598 41.193,-0.598 23.918,0 41.591,0.2658 41.591,0.598 0,0.3322 -0.797,0.7972 -1.793,1.063 -3.655,0.8637 -6.113,2.9898 -7.973,6.8433 l -1.861,3.7871 v 115.2735 115.2734 l 1.595,3.1891 c 1.727,3.4549 4.651,6.0461 7.574,6.7769 0.997,0.2658 1.993,0.7309 2.193,1.0631 0.199,0.3322 -17.341,0.5979 -41.725,0.5315 h -42.056 z m 20.862,-150.088 c -0.133,-0.1329 -22.988,-0.1329 -50.693,-0.066 l -50.495,0.1993 50.561,57.6035 50.494,57.67 0.2,-57.6035 c 0.07,-31.6255 0.07,-57.67 -0.07,-57.8028 z m -336.784,-211.2793 2.259,-0.5316 -11.561,-11.2948 c -35.08,-34.4823 -63.384,-53.9493 -88.697,-60.9255 -4.252,-1.1959 -6.976,-1.4617 -15.481,-1.4617 -9.634,-0.066 -10.63,0.066 -15.613,1.7939 -9.235,3.2556 -17.341,8.903 -20.132,14.0853 -0.73,1.3288 -1.129,3.6542 -1.129,6.9762 0,7.1091 2.658,12.2914 9.9,19.6663 11.627,11.627 28.768,20.3306 51.823,26.1773 10.232,2.5912 23.32,4.9166 33.951,5.9796 7.109,0.6644 51.491,0.3322 54.68,-0.465 z m -219.119,368.6093 c 0,-0.3322 1.063,-0.7973 2.325,-0.9966 2.923,-0.598 5.98,-3.1227 7.84,-6.644 l 1.462,-2.7241 v -116.27 -116.2701 l -1.462,-2.7905 c -1.794,-3.2555 -5.116,-5.9796 -8.039,-6.5775 -1.196,-0.2658 -2.126,-0.6644 -2.126,-0.9966 0,-0.3322 18.271,-0.598 41.525,-0.598 37.339,0 45.71,0.3322 39.731,1.5281 -3.123,0.598 -6.379,3.322 -8.106,6.7769 l -1.727,3.2556 -0.2,49.6971 -0.133,49.6971 h 81.722 81.787 l -0.199,-49.6307 -0.199,-49.6971 -1.595,-3.1891 c -1.594,-3.322 -4.85,-5.9796 -8.172,-6.7769 -1.063,-0.2658 -1.86,-0.7308 -1.86,-1.063 0,-0.3322 17.673,-0.598 41.525,-0.598 37.339,0 45.71,0.3322 39.731,1.5281 -2.99,0.598 -6.378,3.322 -8.172,6.4447 l -1.661,2.9898 v 116.2701 116.27 l 1.461,2.7241 c 1.794,3.322 4.784,5.9796 7.508,6.5775 6.312,1.3953 -0.199,1.661 -38.801,1.661 -23.32,0 -41.591,-0.2657 -41.591,-0.5979 0,-0.3322 0.93,-0.7309 2.126,-0.9966 3.056,-0.598 6.179,-3.2556 7.906,-6.8434 l 1.595,-3.1891 0.199,-45.3121 0.199,-45.3785 h -81.787 -81.722 v 44.0497 c 0,49.83 -0.07,49.2321 4.718,53.75 1.528,1.4617 3.587,2.6576 4.916,2.9234 6.844,1.2623 -1.063,1.5945 -39.199,1.5945 -23.786,0 -41.525,-0.2657 -41.525,-0.5979 z m 1717.474,3.9199 c -33.353,-2.5911 -60.792,-13.3544 -79.263,-31.2268 -7.574,-7.242 -11.693,-12.69 -15.746,-20.9286 -4.451,-8.903 -5.979,-15.1483 -5.979,-24.5828 0,-17.7395 5.58,-34.0173 15.679,-45.8436 8.903,-10.4311 24.185,-19.1348 43.12,-24.5829 14.285,-4.1192 30.097,-6.5111 61.789,-9.3016 23.653,-2.0596 33.951,-3.322 42.322,-5.0494 18.936,-3.7871 27.972,-10.4311 28.902,-21.2608 1.727,-18.6697 -19.401,-32.4892 -57.139,-37.4722 -9.966,-1.2624 -24.915,-1.2624 -33.02,0 -14.949,2.3919 -32.556,8.2386 -48.834,16.2778 -17.673,8.6372 -23.852,13.5538 -30.628,24.2506 -1.728,2.7241 -3.19,4.9166 -3.256,4.7837 -0.07,-0.066 -6.179,-12.0256 -13.554,-26.5096 l -13.421,-26.3767 3.522,-2.0596 c 1.926,-1.1295 7.64,-4.1193 12.69,-6.7104 58.733,-29.9645 118.861,-36.3427 172.877,-18.4704 40.129,13.288 62.387,37.0736 65.443,70.0278 1.661,17.6066 -2.458,33.6851 -11.494,45.2457 -11.694,14.8826 -31.825,23.9184 -64.248,28.7685 -9.501,1.3953 -19.865,2.5247 -44.847,4.7173 -36.542,3.2555 -52.554,7.3748 -61.457,15.6798 -6.378,5.9796 -9.035,14.3511 -7.042,22.1245 1.329,5.1159 3.322,8.305 7.707,12.225 8.77,7.9064 22.656,12.6901 41.857,14.4175 23.586,2.1925 56.474,-4.4515 84.379,-16.9422 16.278,-7.3084 25.712,-15.0819 28.569,-23.5862 l 1.063,-3.1227 5.315,9.7002 c 2.99,5.3152 9.036,16.3443 13.554,24.5164 7.774,14.1517 8.106,14.8161 6.91,15.7463 -4.518,3.5213 -14.883,9.3016 -25.181,14.0188 -31.426,14.4175 -60.793,20.7958 -99.992,21.7924 -7.109,0.1329 -16.411,0 -20.597,-0.2658 z m -1936.394,24.1842 c -1.063,-0.1329 -5.249,-0.598 -9.302,-0.9966 -18.736,-1.7939 -44.249,-8.7037 -61.989,-16.7429 -30.894,-13.9524 -55.876,-34.6817 -73.416,-60.7926 -5.381,-8.0393 -13.088,-23.7856 -16.012,-32.6885 -7.773,-23.9849 -8.703,-49.365 -2.657,-73.2169 13.686,-54.348 61.722,-98.0655 125.505,-114.4762 17.54,-4.5179 32.622,-6.3118 52.421,-6.3118 35.213,0 67.304,8.305 99.726,25.8452 10.299,5.5809 20.132,12.1585 31.36,21.1279 0.93,0.7308 0.07,2.4583 -6.112,12.9558 -13.886,23.6526 -20.397,34.4159 -20.597,34.4159 -0.199,0 -0.598,-1.2623 -1.063,-2.7905 -1.461,-5.448 -8.438,-12.69 -15.945,-16.4771 -1.263,-0.6644 -4.12,-2.3918 -6.312,-3.8535 -18.404,-12.225 -41.326,-20.5964 -63.716,-23.3869 -7.574,-0.9302 -27.241,-0.9302 -35.546,0 -51.623,5.7803 -89.494,32.0905 -103.513,71.8217 -4.119,11.5605 -5.116,18.1381 -5.116,32.8214 0,10.1653 0.266,14.6832 1.196,19.2011 6.378,31.559 25.978,55.9425 57.271,71.2237 18.603,9.1023 38.27,13.6867 62.786,14.6168 36.21,1.4617 68.898,-9.368 97.202,-32.1569 6.444,-5.1159 9.301,-8.5044 10.232,-12.0921 l 0.598,-2.3254 1.926,2.9898 c 0.997,1.661 7.774,11.5605 15.082,22.0581 7.242,10.4975 13.155,19.334 13.155,19.6662 0,1.0631 -10.298,10.564 -16.078,14.8162 -22.988,17.075 -54.415,28.9014 -88.897,33.4857 -7.84,1.0631 -37.339,1.9268 -42.189,1.2624 z m 1163.032,46.4416 c -2.657,-1.3953 -3.986,-3.5878 -3.986,-6.7105 0,-4.6508 2.79,-7.3748 7.508,-7.4413 2.392,0 3.122,-0.2657 3.122,-0.9966 0,-1.9267 -1.926,-4.7836 -5.115,-7.5741 l -3.123,-2.7905 1.462,-1.3952 1.395,-1.3953 4.584,4.5844 c 6.578,6.5775 8.372,12.9558 5.515,19.334 -2.126,4.6508 -7.043,6.5776 -11.362,4.3851 z m 156.799,38.4688 c 0,-0.2658 0.664,-0.7973 1.528,-1.1295 l 1.462,-0.6644 0.199,-23.3869 0.133,-23.3869 -1.661,-1.1295 c -0.93,-0.598 -1.661,-1.3288 -1.661,-1.661 0,-0.6644 18.138,-0.8637 18.802,-0.1993 0.2,0.1993 -0.332,1.063 -1.262,1.8603 l -1.661,1.3952 0.199,15.4141 0.2,15.3477 16.277,-14.8161 c 8.97,-8.1722 16.411,-15.3477 16.544,-16.0121 0.07,-0.598 -0.266,-1.3952 -0.864,-1.7274 -2.591,-1.4617 -0.598,-1.8604 9.236,-1.8604 5.647,0 10.298,0.2658 10.298,0.598 0,0.3322 -0.731,1.063 -1.661,1.661 l -1.661,1.063 v 23.1876 23.1876 l 1.86,1.3952 1.794,1.3288 -9.966,0.067 h -9.966 l 1.86,-1.5282 1.861,-1.4616 -0.2,-15.0819 -0.199,-15.0819 -15.281,14.0188 c -8.372,7.6406 -15.547,14.5504 -15.946,15.2812 -0.465,0.9966 -0.332,1.5282 0.532,2.1926 0.598,0.465 1.129,0.9966 1.129,1.2623 0,0.1994 -4.916,0.3987 -10.963,0.3987 -6.046,0 -10.962,-0.1993 -10.962,-0.5315 z m -29.898,-0.067 c 0,-0.3322 0.598,-0.7973 1.262,-1.063 0.665,-0.1994 1.462,-1.0631 1.661,-1.8604 0.2,-0.7972 0.399,-11.2948 0.399,-23.254 V 7687.08 l -1.661,-1.5281 c -0.93,-0.8637 -1.661,-1.7275 -1.661,-1.9932 0,-0.1993 4.518,-0.3987 9.966,-0.3987 5.514,0 9.966,0.2658 9.966,0.598 0,0.3322 -0.731,1.063 -1.661,1.661 l -1.661,1.1295 0.133,23.3869 0.199,23.3869 1.528,0.6644 c 0.797,0.3322 1.462,0.8637 1.462,1.1295 0,0.3322 -4.452,0.5315 -9.966,0.5315 -5.714,0 -9.966,-0.2658 -9.966,-0.598 z m -194.005,-0.066 c 0,-0.3322 0.399,-0.6644 0.93,-0.6644 1.794,0 5.05,-3.4549 14.683,-15.6134 l 9.634,-12.1586 v -9.966 c 0,-8.2385 -0.199,-10.1653 -1.063,-11.029 -0.531,-0.598 -1.329,-1.0631 -1.661,-1.0631 -0.332,0 -0.598,-0.2657 -0.598,-0.6644 0,-0.3986 3.787,-0.6644 9.966,-0.6644 9.767,0 11.561,0.3987 8.637,1.9932 -1.262,0.6644 -1.328,1.3953 -1.328,11.162 v 10.4311 l 8.371,10.6304 c 9.567,12.1585 13.222,16.1449 15.414,16.7428 4.053,0.9967 0.266,1.5282 -10.962,1.5282 l -12.491,-0.067 1.86,-1.3288 c 0.997,-0.7308 1.794,-1.9267 1.794,-2.5911 0,-0.9302 -7.242,-11.2284 -9.9,-14.1518 -0.465,-0.465 -7.574,8.0393 -10.298,12.225 -1.262,1.9932 -0.863,3.6542 0.997,4.2522 3.588,1.1959 0.199,1.661 -11.361,1.661 -7.973,0 -12.624,-0.2658 -12.624,-0.6644 z m -63.118,0.1993 c 0,-0.3322 0.598,-0.9302 1.329,-1.3953 1.262,-0.7972 1.329,-1.5281 1.329,-24.3834 0,-22.8554 -0.07,-23.5863 -1.329,-24.2507 -2.924,-1.5945 -1.13,-1.9932 8.637,-1.9932 5.514,0 9.966,0.2658 9.966,0.598 0,0.3322 -0.731,1.063 -1.661,1.661 -1.661,1.063 -1.661,1.1959 -1.661,10.3647 v 9.3016 h 6.843 l 6.777,-0.066 6.511,-8.6372 c 3.522,-4.7172 6.445,-9.0358 6.445,-9.5674 0,-0.5315 -0.598,-1.2623 -1.329,-1.661 -3.056,-1.5945 -1.063,-1.9932 10.631,-1.9932 7.109,0 11.959,0.2658 11.959,0.6644 0,0.3322 -1.063,1.1295 -2.326,1.7275 -1.594,0.7308 -4.717,4.0528 -9.633,10.2982 -4.053,5.0494 -7.309,9.3016 -7.309,9.5674 0,0.1993 0.465,0.3322 0.997,0.3322 2.392,0 8.836,3.0562 11.029,5.2487 6.843,6.7769 4.385,18.7361 -4.717,22.9218 -2.857,1.3288 -4.319,1.3953 -27.706,1.5946 -13.62,0.1329 -24.782,-0.066 -24.782,-0.3322 z m 43.12,-9.5009 c 1.195,-0.3322 2.591,-1.1295 3.122,-1.7939 1.395,-1.9268 1.13,-5.2488 -0.664,-7.3084 l -1.595,-1.8603 -13.686,-0.1994 -13.687,-0.1993 v 5.9796 6.0461 h 12.158 c 6.644,0 13.089,-0.2658 14.352,-0.6644 z m -102.052,8.5707 1.794,-1.3952 v -23.1211 -23.1876 l -1.661,-1.2624 c -0.931,-0.7308 -1.661,-1.5281 -1.661,-1.7274 0,-0.1993 11.494,-0.3987 25.579,-0.3987 24.848,0 25.579,-0.066 26.377,-1.3288 0.465,-0.7308 1.063,-1.3288 1.328,-1.3288 0.333,0 0.532,3.4549 0.532,7.6406 0,4.1858 -0.199,7.6407 -0.532,7.6407 -0.265,0 -0.863,-0.598 -1.328,-1.3288 -0.798,-1.2624 -1.529,-1.3289 -17.74,-1.3289 h -16.942 v 19.9321 c 0,19.2011 0.07,19.932 1.329,20.7292 0.731,0.4651 1.329,1.0631 1.329,1.3289 0,0.3322 -4.585,0.5315 -10.099,0.5315 l -10.166,-0.067 z m -175.601,0.7973 c 0,-0.3322 0.598,-0.7973 1.328,-1.063 0.731,-0.1994 1.861,-1.196 2.592,-2.1926 1.129,-1.661 17.34,-39.7975 18.337,-43.1195 0.332,-1.1295 -0.07,-1.9268 -1.262,-3.1227 -0.93,-0.8637 -1.728,-1.7275 -1.728,-1.9932 0,-0.1993 4.784,-0.3987 10.631,-0.3987 6.644,0 10.63,0.2658 10.63,0.6644 0,0.3987 -0.266,0.6644 -0.598,0.6644 -1.129,0 -2.724,2.0597 -2.724,3.4549 0,1.5281 12.69,31.094 13.354,31.094 0.333,0 11.827,-27.0411 12.823,-30.3631 0.399,-1.1295 0.07,-1.9268 -1.196,-3.1227 -0.93,-0.8637 -1.727,-1.7275 -1.727,-1.9932 0,-0.1993 4.917,-0.3987 10.963,-0.3987 6.046,0 10.962,0.2658 10.962,0.5316 0,0.3322 -0.731,0.9301 -1.661,1.3288 -1.196,0.5979 -1.661,1.2623 -1.661,2.724 0,1.7274 13.554,34.7481 17.208,41.7908 0.798,1.5945 2.326,3.3884 3.455,3.9864 1.063,0.5979 1.927,1.3288 1.927,1.661 0,0.2658 -4.917,0.4651 -10.963,0.4651 -10.099,0 -13.221,-0.5315 -9.634,-1.661 1.263,-0.3987 1.595,-1.3288 1.329,-3.8536 -0.133,-1.3288 -9.833,-25.1143 -10.564,-25.8451 -0.664,-0.7309 -11.494,25.7123 -11.228,27.5061 0.133,0.7973 0.864,1.7939 1.727,2.1926 0.798,0.3322 1.462,0.8637 1.462,1.1295 0,0.3322 -5.647,0.5315 -12.624,0.5315 -11.627,0 -14.949,-0.4651 -11.361,-1.661 2.724,-0.8638 2.259,-2.7241 -3.654,-16.61 -3.189,-7.5078 -6.046,-13.4209 -6.312,-13.1552 -1.063,1.2624 -11.228,25.7123 -11.228,27.174 0,0.8637 0.598,1.9268 1.329,2.3918 0.73,0.4651 1.328,1.0631 1.328,1.3289 0,0.3322 -4.783,0.5315 -10.63,0.5315 -6.112,0 -10.63,-0.2658 -10.63,-0.598 z m -222.375,-0.7973 1.794,-1.3952 v -23.5198 -23.5198 l -1.661,-0.7972 c -0.864,-0.3987 -1.462,-0.9966 -1.263,-1.2624 0.465,-0.7973 19.334,-0.7308 19.799,0 0.2,0.3322 -0.332,1.063 -1.262,1.661 -1.661,1.063 -1.661,1.1959 -1.661,10.4311 v 9.3016 l 6.777,-0.1993 6.777,-0.1993 6.179,-7.9728 c 7.109,-9.1688 7.574,-10.1654 5.581,-11.4942 -0.731,-0.5315 -1.395,-1.1959 -1.395,-1.5281 0,-0.3322 5.381,-0.598 11.959,-0.598 6.843,0 11.959,0.2658 11.959,0.598 0,0.3322 -1.13,1.1959 -2.458,1.8603 -1.728,0.7973 -4.718,4.0529 -9.701,10.3647 -3.986,5.0494 -7.109,9.3016 -6.976,9.368 0.07,0.066 1.861,0.6644 3.92,1.2624 6.91,2.1261 10.697,5.7803 11.494,11.3612 1.13,7.3084 -1.993,13.1551 -8.57,16.1449 -2.392,1.0631 -5.249,1.196 -27.905,1.3953 l -25.247,0.1329 z m 44.714,-10.0989 c 2.79,-3.2555 1.86,-7.1755 -2.06,-8.8365 -1.727,-0.6644 -5.448,-0.9301 -14.616,-0.9301 h -12.292 v 6.046 5.9796 l 13.687,-0.1993 13.686,-0.1993 z m -150.553,10.8298 c 0,-0.3322 0.266,-0.6644 0.598,-0.6644 0.332,0 1.129,-0.4651 1.661,-1.0631 0.93,-0.8637 1.063,-3.9864 1.063,-23.5862 V 7687.08 l -1.661,-1.5281 c -0.93,-0.8637 -1.661,-1.7275 -1.661,-1.9932 0,-0.1993 4.518,-0.3987 9.966,-0.3987 5.514,0 9.966,0.1994 9.966,0.3987 0,0.2657 -0.731,1.1295 -1.661,1.9932 l -1.661,1.5281 v 22.5896 c 0,19.5998 0.133,22.7225 1.063,23.5862 0.531,0.598 1.329,1.0631 1.661,1.0631 0.332,0 0.598,0.3322 0.598,0.6644 0,0.3986 -3.787,0.6644 -9.966,0.6644 -6.179,0 -9.966,-0.2658 -9.966,-0.6644 z m -71.755,0.3986 c 0,-0.1993 0.73,-1.063 1.661,-1.9932 l 1.661,-1.661 v -22.3238 -22.3239 l -1.661,-1.5281 c -0.931,-0.8637 -1.661,-1.7275 -1.661,-1.9932 0,-0.1993 4.518,-0.3987 9.966,-0.3987 5.514,0 9.966,0.2658 9.966,0.598 0,0.3322 -0.731,1.063 -1.661,1.661 -1.661,1.063 -1.661,1.1959 -1.661,10.3647 v 9.3016 h 6.843 6.777 l 6.511,-8.5044 c 3.521,-4.7172 6.445,-9.0358 6.445,-9.6338 0,-0.5979 -0.598,-1.4617 -1.329,-1.9932 -0.731,-0.5315 -1.13,-1.1295 -0.864,-1.3288 0.199,-0.2657 5.581,-0.4651 11.959,-0.4651 11.229,0 13.621,0.4651 10.033,1.9932 -2.458,0.9966 -3.322,1.9268 -10.83,11.2949 l -7.109,8.9694 2.923,0.7308 c 4.718,1.1959 7.375,2.5912 9.701,4.983 2.657,2.724 3.72,6.3782 3.255,11.4277 -0.465,5.3152 -2.657,8.4379 -7.574,10.8961 l -3.854,1.8604 -24.715,0.1993 c -13.62,0.1329 -24.782,0.066 -24.782,-0.1329 z m 43.784,-9.7667 c 2.458,-0.8637 3.388,-2.3254 3.388,-5.5145 0,-2.724 -1.794,-4.7172 -4.784,-5.3152 -1.129,-0.1993 -7.374,-0.3986 -13.886,-0.3986 h -11.892 v 5.9796 5.9796 h 12.557 c 7.375,0 13.354,-0.2658 14.617,-0.7309 z m -248.42,9.7003 c 0,-0.1329 0.731,-1.0631 1.661,-1.9268 l 1.728,-1.7274 -0.2,-22.6561 -0.199,-22.7225 -1.462,-0.9966 c -0.863,-0.5315 -1.528,-1.1959 -1.528,-1.5281 0,-0.3322 4.186,-0.598 9.302,-0.598 5.116,0 9.302,0.1994 9.302,0.4651 0,0.2658 -0.731,1.0631 -1.661,1.8603 l -1.728,1.3288 0.199,15.547 0.2,15.4805 15.613,-14.2181 c 19.201,-17.5402 18.47,-16.7429 17.075,-18.3375 -0.664,-0.6644 -1.129,-1.4617 -1.129,-1.661 0,-0.2657 4.518,-0.4651 9.966,-0.4651 5.514,0 9.966,0.1994 9.966,0.3987 0,0.2657 -0.731,1.1295 -1.661,1.9932 l -1.661,1.5281 v 22.5896 c 0,19.5998 0.133,22.7225 1.063,23.5862 0.531,0.598 1.329,1.0631 1.661,1.0631 0.332,0 0.598,0.3322 0.598,0.6644 0,0.3986 -3.522,0.6644 -9.302,0.6644 -5.78,0 -9.301,-0.2658 -9.301,-0.6644 0,-0.3322 0.265,-0.6644 0.598,-0.6644 0.332,0 1.129,-0.4651 1.661,-1.0631 0.93,-0.8637 1.063,-3.2555 1.063,-15.9456 0,-8.1721 -0.133,-14.8825 -0.333,-14.8825 -0.863,0 -32.223,29.4329 -32.223,30.2302 0,0.465 0.664,1.3288 1.528,1.8603 1.329,0.9966 0.664,1.063 -9.634,1.063 -6.179,0.067 -11.162,-0.066 -11.162,-0.2657 z m 1227.48,0.9301 c -7.508,-1.2623 -13.089,-4.1193 -17.74,-9.1023 -7.441,-7.9728 -9.168,-18.6032 -4.584,-28.4363 4.983,-10.6304 15.746,-16.2114 31.293,-16.2114 8.638,0 13.753,1.196 21.926,5.0495 3.92,1.8603 6.843,2.8569 7.707,2.6576 0.797,-0.1993 1.594,-0.1993 1.793,0 0.532,0.5979 -7.707,11.5606 -8.504,11.2948 -0.332,-0.066 -0.731,-0.7973 -0.864,-1.5946 -0.398,-2.6576 -8.238,-6.3118 -15.879,-7.4413 -14.151,-1.9932 -26.111,5.8468 -26.111,17.0751 0,10.8962 10.033,18.1382 23.852,17.2744 8.305,-0.465 17.341,-4.2521 17.873,-7.4412 0.531,-2.7241 1.328,-2.259 5.049,2.6576 4.651,6.1124 5.182,7.3084 3.123,6.7768 -0.93,-0.1993 -3.721,0.7309 -8.239,2.857 -10.165,4.8501 -20.264,6.3782 -30.695,4.5843 z m -896.741,0.066 c -11.494,-2.0597 -20.597,-8.6372 -23.852,-17.208 -1.063,-2.724 -1.462,-5.1823 -1.462,-9.368 0,-7.5078 1.728,-12.0257 6.644,-17.2745 6.246,-6.7768 14.816,-9.966 26.443,-9.966 15.016,0 26.045,5.6474 31.028,15.8128 2.059,4.1193 2.192,4.9165 2.192,11.0955 0,6.046 -0.199,7.0426 -2.059,10.9626 -4.85,10.2317 -14.684,15.8127 -28.835,16.2778 -3.854,0.1329 -8.372,0 -10.099,-0.3322 z m 17.806,-11.4277 c 4.119,-2.1925 7.906,-6.2454 8.836,-9.6338 3.189,-11.2948 -3.388,-21.1279 -15.148,-22.789 -4.186,-0.5979 -10.564,0.1994 -13.421,1.7275 -13.62,7.0426 -12.756,25.7787 1.462,31.4261 5.116,1.9932 13.487,1.661 18.271,-0.7308 z m 982.449,12.4243 -1.396,-1.661 h -26.31 c -14.484,0 -26.31,-0.1993 -26.31,-0.5315 0,-0.2658 0.598,-0.8638 1.329,-1.3289 1.262,-0.7972 1.328,-1.5281 1.328,-24.3834 0,-22.8554 -0.07,-23.5863 -1.328,-24.2507 -0.731,-0.3986 -1.329,-0.9966 -1.329,-1.3288 0,-0.3986 10.298,-0.6644 27.572,-0.6644 26.842,0 27.573,-0.066 28.37,-1.3288 0.465,-0.7308 1.063,-1.3288 1.329,-1.3288 0.332,0 0.532,3.4549 0.532,7.6406 0,4.1858 -0.2,7.6407 -0.532,7.6407 -0.266,0 -0.864,-0.598 -1.329,-1.3288 -0.797,-1.2624 -1.528,-1.3289 -20.065,-1.3289 h -19.267 v 6.3119 6.3118 h 11.56 c 11.561,0 11.627,0 12.89,-1.661 0.731,-0.9302 1.528,-1.661 1.727,-1.661 0.199,0 0.399,3.4548 0.399,7.6406 0,4.1857 -0.2,7.6406 -0.399,7.6406 -0.199,0 -0.93,-0.6644 -1.594,-1.4617 -1.13,-1.4617 -1.728,-1.5281 -12.89,-1.7275 l -11.693,-0.2657 v 6.046 6.0461 h 18.138 c 17.341,0 18.271,-0.066 19.4,-1.3288 0.665,-0.7309 1.462,-1.3288 1.794,-1.3288 0.266,0 0.532,3.4548 0.532,7.6406 0,4.1857 -0.2,7.6406 -0.465,7.6406 -0.332,0 -1.196,-0.7973 -1.993,-1.661 z m -564.741,0 -1.395,-1.661 h -26.842 l -26.775,-0.067 1.86,-1.3288 1.794,-1.3952 v -23.5198 -23.5198 l -1.661,-0.7972 c -0.864,-0.3987 -1.462,-0.9966 -1.262,-1.2624 0.199,-0.3322 12.756,-0.598 27.838,-0.598 26.842,0 27.573,0 28.237,-1.3288 1.462,-2.7904 1.993,-1.1959 1.993,6.3118 0,7.5078 -0.531,9.1023 -1.993,6.3119 -0.664,-1.2624 -1.395,-1.3289 -19.932,-1.3289 h -19.268 v 6.3119 6.3118 h 11.561 c 11.561,0 11.627,0 12.889,-1.661 0.731,-0.9302 1.529,-1.661 1.728,-1.661 0.199,0 0.399,3.4548 0.399,7.6406 0,4.1857 -0.266,7.6406 -0.598,7.6406 -0.333,0 -0.997,-0.6644 -1.529,-1.4617 -0.996,-1.4617 -1.461,-1.5281 -12.756,-1.7275 l -11.694,-0.2657 v 6.046 6.0461 h 18.271 c 17.541,0 18.272,-0.066 19.069,-1.3288 0.465,-0.7309 1.196,-1.3288 1.661,-1.3288 0.664,0 0.864,1.9267 0.864,7.6406 0,4.1857 -0.2,7.6406 -0.466,7.6406 -0.332,0 -1.195,-0.7973 -1.993,-1.661 z m -170.086,0 -1.395,-1.661 h -26.311 c -14.484,0 -26.31,-0.1993 -26.31,-0.5315 0,-0.2658 0.598,-0.8638 1.329,-1.3289 1.262,-0.7972 1.329,-1.5281 1.329,-24.3834 0,-22.8554 -0.07,-23.5863 -1.329,-24.2507 -0.731,-0.3986 -1.329,-0.9966 -1.329,-1.3288 0,-0.3986 10.298,-0.6644 27.573,-0.6644 26.841,0 27.572,-0.066 28.37,-1.3288 0.465,-0.7308 1.063,-1.3288 1.328,-1.3288 0.333,0 0.532,3.4549 0.532,7.6406 0,4.1858 -0.199,7.6407 -0.532,7.6407 -0.265,0 -0.863,-0.598 -1.328,-1.3288 -0.798,-1.2624 -1.529,-1.3289 -20.065,-1.3289 h -19.268 v 6.3119 6.3118 h 11.561 c 11.56,0 11.627,0 12.889,-1.661 0.731,-0.9302 1.528,-1.661 1.727,-1.661 0.2,0 0.399,3.4548 0.399,7.6406 0,4.1857 -0.199,7.6406 -0.399,7.6406 -0.199,0 -0.93,-0.6644 -1.594,-1.4617 -1.13,-1.4617 -1.728,-1.5281 -12.89,-1.7275 l -11.693,-0.2657 v 6.046 6.0461 h 18.138 c 17.341,0 18.271,-0.066 19.401,-1.3288 0.664,-0.7309 1.461,-1.3288 1.794,-1.3288 0.265,0 0.531,3.4548 0.531,7.6406 0,4.1857 -0.199,7.6406 -0.465,7.6406 -0.332,0 -1.196,-0.7973 -1.993,-1.661 z m -404.62,-0.066 -1.462,-1.5945 h -26.31 c -17.075,0 -26.244,-0.2658 -26.244,-0.6644 0,-0.3322 0.266,-0.6644 0.598,-0.6644 0.332,0 1.13,-0.4651 1.661,-1.0631 0.93,-0.8637 1.063,-3.9864 1.063,-23.8519 v -22.9219 l -1.661,-1.063 c -0.93,-0.598 -1.661,-1.3288 -1.661,-1.661 0,-0.3322 12.026,-0.598 27.573,-0.598 26.842,0 27.572,-0.066 28.37,-1.3288 0.465,-0.7308 1.196,-1.3288 1.661,-1.3288 0.664,0 0.863,1.9268 0.863,7.6406 0,5.7139 -0.199,7.6407 -0.863,7.6407 -0.465,0 -1.196,-0.598 -1.661,-1.3288 -0.798,-1.2624 -1.528,-1.3289 -20.065,-1.3289 h -19.268 v 6.3119 6.3118 h 11.627 11.694 l 1.594,-1.7275 1.661,-1.7939 v 7.7735 c 0,4.2522 -0.199,7.7071 -0.398,7.7071 -0.2,0 -0.931,-0.6644 -1.595,-1.4617 -1.196,-1.4617 -1.595,-1.5281 -12.756,-1.5281 h -11.495 l -0.199,5.8467 -0.199,5.7803 h 18.337 c 17.474,0 18.338,-0.066 19.401,-1.3288 0.664,-0.7309 1.395,-1.3288 1.661,-1.3288 0.332,0 0.531,3.4548 0.531,7.6406 0,4.1857 -0.199,7.6406 -0.465,7.5741 -0.332,-0.066 -1.196,-0.7972 -1.993,-1.661 z m -118.463,-5.9131 c 0,-4.1858 0.266,-7.6406 0.532,-7.6406 0.332,0 1.129,0.5979 1.794,1.3288 1.063,1.1959 2.059,1.3288 10.431,1.3288 h 9.169 v -19.8656 c 0,-17.208 -0.133,-20.0649 -1.063,-20.9286 -0.532,-0.598 -1.329,-1.0631 -1.661,-1.0631 -0.399,0 -0.466,-0.2657 -0.266,-0.6644 0.531,-0.7972 19.4,-0.9301 19.865,-0.066 0.2,0.2658 -0.398,0.8637 -1.262,1.2624 l -1.661,0.7972 v 20.2643 20.2642 h 9.302 c 8.57,0 9.368,-0.1329 10.098,-1.3288 0.466,-0.7309 1.196,-1.3288 1.661,-1.3288 0.665,0 0.864,1.9267 0.864,7.6406 0,4.1857 -0.199,7.6406 -0.398,7.6406 -0.266,0 -1.13,-0.7309 -1.994,-1.661 l -1.528,-1.661 h -24.981 -24.982 l -1.528,1.661 c -0.864,0.9301 -1.727,1.661 -1.993,1.661 -0.199,0 -0.399,-3.4549 -0.399,-7.6406 z m 1321.16,15.5469 c -0.265,-0.3986 -0.332,-0.7308 -0.265,-0.7972 2.524,-1.3288 2.923,-1.8604 3.122,-3.9864 0.2,-2.5248 0.133,-2.5248 -4.318,-3.4549 -1.661,-0.3322 -2.392,-0.1329 -3.322,0.9301 -0.598,0.7973 -1.396,1.3953 -1.661,1.3953 -0.332,0 -0.532,-3.7207 -0.532,-8.305 0,-4.5844 0.266,-8.305 0.598,-8.305 0.332,0 0.997,0.5979 1.462,1.3952 0.598,0.7973 2.325,1.7274 4.252,2.259 l 3.322,0.7972 0.199,-20.995 0.2,-20.9951 -1.728,-1.3288 c -0.93,-0.7972 -1.661,-1.5945 -1.661,-1.8603 0,-0.2657 4.784,-0.4651 10.631,-0.4651 8.105,0 10.63,0.1994 10.63,0.8638 0,0.465 -0.664,1.1294 -1.462,1.4616 l -1.528,0.6644 -0.199,28.4364 c -0.133,28.6356 0,31.0275 2.192,31.0275 0.532,0 0.997,0.4651 0.997,0.9966 0,0.8637 -1.595,0.9966 -10.232,0.9966 -6.577,0 -10.431,-0.2658 -10.697,-0.7309 z m -883.984,-0.1993 c 0,-0.5315 0.598,-1.1959 1.329,-1.3952 0.73,-0.1993 1.461,-1.0631 1.727,-1.8603 0.199,-0.8638 0.266,-11.0955 0.133,-22.789 -0.199,-23.9848 -0.199,-23.8519 -5.382,-26.2438 -7.175,-3.2556 -23.985,0.2658 -25.911,5.4481 -0.399,1.063 -0.931,1.9268 -1.196,1.9268 -0.665,0 -6.644,-15.2813 -6.246,-15.9457 0.2,-0.2657 1.196,-0.1993 2.259,0.1994 1.661,0.5979 3.588,0.3322 11.229,-1.4617 8.371,-1.9932 9.966,-2.1925 16.809,-1.9268 9.501,0.3987 14.085,1.9932 18.537,6.4447 4.518,4.5179 4.651,5.581 4.651,31.6255 v 22.3238 l 1.661,1.661 c 0.93,0.9302 1.661,1.9268 1.661,2.259 0,0.3986 -4.319,0.6644 -10.631,0.6644 -8.77,0 -10.63,-0.1329 -10.63,-0.9302 z m -543.48,0.066 c 0,-0.4651 0.665,-1.1295 1.528,-1.4617 l 1.462,-0.6644 v -29.2336 -29.2337 l -1.462,-0.6644 c -0.863,-0.3322 -1.528,-0.9966 -1.528,-1.4616 0,-0.6644 2.525,-0.8638 10.631,-0.8638 8.105,0 10.63,0.1994 10.63,0.8638 0,0.465 -0.598,1.1959 -1.329,1.661 -1.328,0.7972 -1.328,1.5281 -1.328,29.6987 0,28.1705 0,28.9014 1.328,29.6987 0.731,0.465 1.329,1.1959 1.329,1.661 0,0.6644 -2.525,0.8637 -10.63,0.8637 -8.106,0 -10.631,-0.1993 -10.631,-0.8637 z m 1637.481,0.465 c -7.972,-1.7274 -14.018,-5.7802 -16.078,-10.6968 -1.262,-2.9234 -1.13,-7.8399 0.199,-10.6304 1.13,-2.4583 5.249,-5.8467 8.372,-6.9762 1.86,-0.6644 2.458,-1.8603 0.996,-1.8603 -1.594,0 -8.836,-3.7871 -10.298,-5.3817 -3.721,-4.0528 -4.451,-10.1653 -1.927,-15.6134 4.385,-9.5009 14.086,-13.5538 32.157,-13.5538 16.942,0.066 26.709,4.1193 31.094,13.0223 1.462,3.0562 1.728,4.2522 1.462,7.9064 -0.199,2.9898 -0.665,4.8501 -1.595,6.1124 -2.126,2.857 -6.444,5.9132 -9.833,6.9098 -1.661,0.4651 -3.056,1.063 -3.056,1.2624 0,0.1993 0.997,0.7308 2.192,1.1959 4.917,1.7939 9.701,7.707 9.767,12.0921 0,5.3152 -3.853,10.8961 -9.501,13.4873 -7.64,3.6542 -23.652,4.9166 -33.951,2.724 z m 21.926,-9.8995 c 4.185,-1.2624 6.511,-3.5878 6.511,-6.644 0,-4.9166 -5.05,-7.3084 -15.547,-7.3084 -7.574,0 -10.83,0.7972 -13.554,3.322 -1.86,1.7274 -2.259,4.7172 -1.063,7.0426 0.731,1.2624 3.654,3.0563 6.644,3.9864 2.923,0.8637 13.554,0.6644 17.009,-0.3986 z m 3.255,-27.2404 c 7.774,-3.7871 7.641,-11.162 -0.199,-14.8162 -3.455,-1.661 -4.518,-1.7939 -11.76,-1.7939 -9.102,0 -12.757,0.9967 -16.012,4.3851 -4.186,4.385 -1.728,10.6968 4.983,12.8229 5.116,1.5946 5.448,1.661 12.557,1.4617 5.78,-0.1993 7.375,-0.5315 10.431,-2.0596 z m -95.806,37.2728 c -10.963,-2.6576 -19.467,-11.1619 -22.457,-22.3903 -1.262,-4.5843 -1.262,-14.5503 0,-19.1347 2.99,-11.2284 11.095,-19.4669 21.925,-22.3239 5.05,-1.2623 14.218,-1.2623 19.268,0 14.484,3.7871 23.187,15.8792 23.054,32.2235 -0.132,19.6662 -13.221,32.6885 -32.688,32.4891 -3.123,0 -7.176,-0.3986 -9.102,-0.8637 z m 17.34,-11.9592 c 6.113,-3.5878 9.368,-11.2948 8.903,-21.2608 -0.531,-11.627 -6.112,-19.0683 -15.148,-20.1313 -5.182,-0.598 -9.102,0.7973 -13.022,4.7837 -4.053,4.0528 -5.515,7.8399 -6.046,15.3476 -0.532,7.6406 1.262,13.5538 5.647,18.2046 1.794,1.9267 4.252,3.7871 5.78,4.385 3.92,1.3953 10.166,0.8637 13.886,-1.3288 z m -95.474,11.8263 c -9.833,-2.3254 -17.407,-8.3714 -19.467,-15.2147 -1.329,-4.7837 -0.864,-9.7667 1.395,-14.2182 6.578,-13.0222 30.164,-16.8093 45.113,-7.3748 1.794,1.1294 3.322,1.9267 3.522,1.7274 0.597,-0.598 -1.794,-8.5043 -3.123,-10.4311 -2.326,-3.1891 -6.644,-6.4447 -10.232,-7.707 -9.501,-3.322 -26.775,0.3322 -27.506,5.7803 -0.133,0.9301 -0.465,1.8603 -0.731,2.126 -0.266,0.2658 -2.458,-2.9233 -4.983,-7.1755 -2.458,-4.2522 -4.319,-7.8399 -4.119,-8.1057 0.199,-0.1993 1.129,0 1.993,0.3987 1.395,0.5979 2.79,0.3322 8.504,-1.661 6.046,-2.0597 7.84,-2.3919 15.481,-2.6576 9.767,-0.3987 14.417,0.3986 21.394,3.787 11.427,5.581 17.54,15.8128 17.54,29.2337 0,16.8757 -8.04,28.1041 -22.723,31.559 -5.315,1.1959 -16.876,1.1959 -22.058,-0.066 z m 21.66,-11.6934 c 3.587,-1.9932 5.78,-5.3152 5.78,-8.7037 0,-3.8535 -2.06,-6.7104 -6.511,-8.9029 -3.389,-1.661 -4.452,-1.8603 -10.431,-1.8603 -5.914,0.066 -7.043,0.2657 -10.166,1.8603 -4.318,2.2589 -6.112,4.983 -6.112,9.2351 0,3.6542 1.993,6.4447 6.112,8.5708 5.382,2.7905 16.145,2.6576 21.328,-0.1993 z m -437.176,11.4277 c -8.969,-2.3254 -14.617,-7.1091 -16.61,-13.886 -2.392,-8.305 1.063,-16.012 8.903,-19.932 3.721,-1.8603 6.777,-2.4583 18.47,-3.7206 18.604,-1.9268 20.929,-2.7241 20.929,-7.4413 0,-7.1755 -13.62,-10.8962 -27.705,-7.5077 -8.903,2.126 -14.817,5.5809 -14.817,8.6372 0,3.0562 -1.926,0.8637 -5.448,-6.2454 -3.654,-7.3749 -3.92,-9.0359 -1.196,-7.7071 0.598,0.2658 3.788,-0.5315 7.641,-2.0596 8.837,-3.322 15.414,-4.5844 23.918,-4.5844 20.597,0 32.224,7.4413 32.224,20.5965 0,5.3816 -1.528,8.77 -5.249,12.1585 -4.983,4.5179 -11.228,6.2453 -27.639,7.7735 -10.763,0.9301 -14.019,1.7274 -15.613,3.787 -1.927,2.4583 -1.661,4.0529 1.196,6.8434 3.189,3.1891 7.906,4.3186 16.41,3.7871 9.767,-0.5316 20.065,-4.7173 21.593,-8.7701 0.332,-0.9302 0.864,-1.661 1.13,-1.661 0.531,0 7.64,12.8229 8.039,14.4839 0.199,0.7308 -0.266,0.7973 -1.794,0.4651 -1.528,-0.3322 -3.787,0.1993 -8.637,1.9267 -3.588,1.2624 -8.77,2.7905 -11.561,3.322 -6.976,1.4617 -18.138,1.3288 -24.184,-0.2657 z"
       inkscape:connector-curvature="0" />
  </g>
</svg>
