<?xml version="1.0" encoding="utf-8"?>
<!-- Generator: Adobe Illustrator 18.0.0, SVG Export Plug-In . SVG Version: 6.00 Build 0)  -->
<!DOCTYPE svg PUBLIC "-//W3C//DTD SVG 1.1//EN" "http://www.w3.org/Graphics/SVG/1.1/DTD/svg11.dtd">
<svg version="1.1" id="Layer_1" xmlns="http://www.w3.org/2000/svg" xmlns:xlink="http://www.w3.org/1999/xlink" x="0px" y="0px"
	 width="227.7px" height="65.3px" viewBox="0 0 227.7 65.3" enable-background="new 0 0 227.7 65.3" xml:space="preserve">
<g fill="white">
	<defs>
		<rect id="SVGID_1_" y="0" width="227.7" height="65.3"/>
	</defs>
	<clipPath id="SVGID_2_">
		<use xlink:href="#SVGID_1_"  overflow="visible"/>
	</clipPath>
	<path clip-path="url(#SVGID_2_)" d="M226.8,12.3V14h-9v21.2c0,3.7,1.8,5,3.9,5c1.7,0,4.4-1.3,4.4-6v-2.6h1.7v2.1
		c0,4.8-2.2,8.1-7.1,8.1c-4.4,0-6.9-2.4-6.9-6.9V14h-4.4v-1.7c5,0,6.4-4.9,6.8-9h1.7v9H226.8z M191.3,17.1c0-1.8-1-2.4-4.7-2.4V13
		l8.8-0.4v7.2c1.5-3.5,3.6-7.5,7.9-7.5c2.4,0,4.6,1.4,4.6,4.1c0,1.8-1.1,2.9-2.7,2.9c-1.6,0-2.7-0.9-2.7-2.7c0-1.1,0.5-1.9,1.4-2.4
		c-0.2-0.2-0.5-0.3-0.9-0.3c-1.6,0-5.2,1.8-6.7,8.7c-0.8,3.8-0.8,9.3-0.8,13.2c0,3,1,3.6,5.4,3.6v1.7h-14.2v-1.7
		c3.8,0,4.8-0.6,4.8-2.4V17.1z M179.5,21v15.9c0,1.8,0.7,2.1,1.6,2.1c1.1,0,1.9-1.1,1.9-4.7h1.7c0,4-1.1,6.7-4.9,6.7
		c-2.7,0-4.1-1.8-4.2-5.1c-1.8,3.2-4.9,5.9-9.3,5.9c-3.9,0-8.1-2.3-8.1-7c0-7.6,11.7-9.6,17.2-11v-4.2c0-3.4-1.8-5.6-6.1-5.6
		c-2.5,0-5.1,0.9-6.7,2.1c1.3,0.2,2.6,1.1,2.6,2.7c0,1.4-1,2.9-2.8,2.9c-1.7,0-2.7-1.3-2.7-3.3c0-3.3,4.1-6.1,9.4-6.1
		C175.8,12.3,179.5,14.4,179.5,21 M175.4,25.3c-5.4,1.2-12.7,2.9-12.7,9.9c0,2.7,2.4,4.5,4.9,4.5c4.2,0,7.8-4.7,7.8-10.1V25.3z
		 M128.1,27c0-7.5,4.8-14.7,13-14.7c8.1,0,13,7.3,13,14.7c0,7.5-4.8,14.7-13,14.7C132.9,41.8,128.1,34.5,128.1,27 M149.5,27
		c0-8.4-2.6-13.1-8.4-13.1c-5.8,0-8.4,4.7-8.4,13.1c0,8.4,2.6,13.1,8.4,13.1C146.8,40.1,149.5,35.5,149.5,27 M121.7,3.3
		c0,1.6-1.3,2.8-2.9,2.8c-1.6,0-2.9-1.2-2.9-2.8c0-1.6,1.3-2.9,2.9-2.9C120.4,0.4,121.7,1.6,121.7,3.3 M71.5,37c0,1.8,1,2.4,4.5,2.4
		v1.7l-8.5,0.4V37c-2.2,2.9-4.4,4.8-9.1,4.8c-5.1,0-9-1.9-9-7.9V17.1c0-1.8-1-2.4-4.7-2.4V13l8.8-0.4v21.7c0,3.8,2.1,5.8,5.6,5.8
		c5,0,8.4-4.1,8.4-10.7V17.1c0-1.8-1-2.4-4.7-2.4V13l8.8-0.4V37z M41,12.3V14h-9v21.2c0,3.7,1.8,5,3.9,5c1.7,0,4.4-1.3,4.4-6v-2.6
		H42v2.1c0,4.8-2.2,8.1-7.1,8.1c-4.4,0-6.9-2.4-6.9-6.9V14h-4.4v-1.7c5,0,6.4-4.9,6.8-9h1.7v9H41z M0,41.1v-9.9h1.7
		c0.5,4.8,3.8,9,7.9,9c4.1,0,6.7-1.7,6.7-6.4c0-7.4-16.1-3.8-16.1-13.6c0-4.2,4.1-7.8,8.7-7.8c4.2,0,5.9,1.8,6.7,1.8
		c0.7,0,1-0.5,1.1-1.1h1.7v8.8h-1.5C16.2,18,14.2,14,9.5,14c-3.1,0-5.6,1.8-5.6,5.3c0,7.8,16.1,3.2,16.1,14.3c0,4.7-4,8.2-10.6,8.2
		c-3.8,0-5.7-2.4-6.7-2.4c-0.7,0-1.1,1-1.4,1.7H0z M104.5,37c0,1.8,1,2.4,4.5,2.4v1.7l-8.6,0.4v-5c-2,3-4.6,5.4-8.7,5.4
		c-7.5,0-12.4-7.3-12.4-14.7c0-7.5,4.8-14.7,12-14.7c4.5,0,8.1,2.7,8.9,5.1l0.2-13.1c0-1.8-1-2.4-4.7-2.4V0.2l8.8-0.2V37z
		 M91.9,40.1c6.7,0,8.6-5.8,8.6-13.1c0-9.1-3.1-13.1-8.6-13.1c-4.4,0-8.2,3.7-8.2,13.1C83.6,36.4,87.5,40.1,91.9,40.1 M126.3,39.4
		l0,1.7h-14.1v-1.7c4.2,0,5.1-0.6,5.1-2.4V17.1c0-1.8-1-2.4-4.7-2.4V13l8.8-0.4V37C121.3,38.8,122.3,39.4,126.3,39.4"/>
	<path clip-path="url(#SVGID_2_)" d="M61.1,58.7h3V59h-0.7c-0.1,0-0.2,0-0.3,0.1c-0.1,0.1-0.1,0.2-0.1,0.3v5.1c0,0.1,0,0.2,0.1,0.3
		c0.1,0.1,0.2,0.1,0.4,0.1h0.9c0.5,0,0.9-0.2,1.2-0.5c0.3-0.3,0.5-0.9,0.7-1.7h0.3l-0.1,2.5h-5.4v-0.3h0.5c0.2,0,0.3,0,0.4-0.1
		c0.1-0.1,0.1-0.2,0.1-0.3v-5c0-0.1,0-0.2-0.1-0.2C62,59,61.9,59,61.8,59h-0.7V58.7z"/>
	<path clip-path="url(#SVGID_2_)" d="M67.6,58.7h5.1l0.1,2.2h-0.3c-0.1-0.7-0.3-1.2-0.6-1.4c-0.3-0.3-0.6-0.4-1-0.4h-1.3
		c-0.1,0-0.2,0-0.2,0.1c-0.1,0.1-0.1,0.1-0.1,0.3v2.3H70c0.3,0,0.5-0.1,0.7-0.3c0.2-0.2,0.3-0.5,0.3-1h0.3v3H71
		c0-0.5-0.1-0.8-0.3-1.1c-0.2-0.2-0.4-0.3-0.8-0.3h-0.5v2.6c0,0.1,0,0.2,0.1,0.2c0.1,0.1,0.2,0.1,0.3,0.1h1c1.1,0,1.7-0.7,1.9-2.1
		H73l-0.1,2.4h-5.3v-0.3H68c0.2,0,0.3,0,0.4-0.1c0.1-0.1,0.1-0.1,0.1-0.3v-5.1c0-0.1,0-0.2-0.1-0.3C68.3,59,68.2,59,68.1,59h-0.5
		V58.7z"/>
	<path clip-path="url(#SVGID_2_)" d="M76.4,59.8l-1.2,2.9h2.3L76.4,59.8z M76.6,58.5h0.3l2.3,5.9c0.1,0.2,0.3,0.4,0.6,0.4h0.2v0.3
		h-2.6v-0.3h0.2c0.3,0,0.5,0,0.6-0.1c0.1,0,0.1-0.1,0.1-0.2c0,0,0-0.1,0-0.2L77.7,63h-2.5l-0.3,0.8c-0.1,0.2-0.1,0.4-0.1,0.5
		c0,0.1,0.1,0.3,0.2,0.4c0.1,0.1,0.3,0.2,0.6,0.2h0.2v0.3h-2.3v-0.3c0.3,0,0.4-0.1,0.6-0.2c0.1-0.1,0.3-0.3,0.4-0.6L76.6,58.5z"/>
	<path clip-path="url(#SVGID_2_)" d="M80.3,58.7h5.2l0.1,2.4h-0.3c-0.2-1.4-0.7-2.2-1.6-2.2c-0.2,0-0.3,0-0.3,0.1
		c-0.1,0.1-0.1,0.2-0.1,0.3v5.2c0,0.1,0,0.2,0.1,0.2c0.1,0.1,0.2,0.1,0.3,0.1h0.6v0.3h-3v-0.3h0.7c0.1,0,0.2,0,0.2-0.1
		c0.1,0,0.1-0.1,0.1-0.2v-5.2c0-0.1,0-0.2-0.1-0.3c-0.1-0.1-0.2-0.1-0.3-0.1c-0.4,0-0.8,0.2-1.1,0.6c-0.2,0.3-0.4,0.8-0.5,1.6h-0.3
		L80.3,58.7z"/>
	<path clip-path="url(#SVGID_2_)" d="M86.3,58.7H89V59h-0.5c-0.2,0-0.3,0-0.3,0.1c-0.1,0.1-0.1,0.2-0.1,0.5v2H91v-2
		c0-0.3,0-0.4-0.1-0.5c0-0.1-0.2-0.1-0.4-0.1h-0.5v-0.3h2.7V59h-0.5c-0.1,0-0.2,0-0.3,0c-0.1,0-0.1,0.1-0.1,0.2c0,0,0,0.2,0,0.4v4.6
		c0,0.2,0,0.4,0.1,0.4c0.1,0.1,0.2,0.1,0.4,0.1h0.4v0.3h-2.7v-0.3h0.5c0.2,0,0.3-0.1,0.4-0.2c0-0.1,0.1-0.2,0.1-0.4V62h-2.9v2.3
		c0,0.2,0,0.4,0.1,0.4c0.1,0.1,0.2,0.1,0.4,0.1H89v0.3h-2.8v-0.3h0.5c0.1,0,0.2,0,0.2-0.1c0.1,0,0.1-0.1,0.1-0.2c0,0,0-0.2,0-0.4
		v-4.7c0-0.2,0-0.4-0.1-0.5C87,59,86.9,59,86.7,59h-0.5V58.7z"/>
	<path clip-path="url(#SVGID_2_)" d="M93.9,58.7H99l0.1,2.2h-0.3c-0.1-0.7-0.3-1.2-0.6-1.4c-0.3-0.3-0.6-0.4-1-0.4H96
		c-0.1,0-0.2,0-0.2,0.1c-0.1,0.1-0.1,0.1-0.1,0.3v2.3h0.6c0.3,0,0.5-0.1,0.7-0.3c0.2-0.2,0.3-0.5,0.3-1h0.3v3h-0.3
		c0-0.5-0.1-0.8-0.3-1.1c-0.2-0.2-0.4-0.3-0.8-0.3h-0.5v2.6c0,0.1,0,0.2,0.1,0.2c0.1,0.1,0.2,0.1,0.3,0.1h1c1.1,0,1.7-0.7,1.9-2.1
		h0.3l-0.1,2.4h-5.3v-0.3h0.4c0.2,0,0.3,0,0.4-0.1c0.1-0.1,0.1-0.1,0.1-0.3v-5.1c0-0.1,0-0.2-0.1-0.3C94.6,59,94.5,59,94.4,59h-0.5
		V58.7z"/>
	<path clip-path="url(#SVGID_2_)" d="M101.9,61.6h0.8c0.5,0,0.9-0.1,1.2-0.3c0.3-0.2,0.4-0.5,0.4-1c0-0.3-0.1-0.6-0.2-0.8
		c-0.1-0.2-0.3-0.3-0.4-0.4c-0.2-0.1-0.5-0.1-1-0.1c-0.3,0-0.6,0-0.6,0.1c-0.1,0-0.1,0.1-0.1,0.2V61.6z M100,58.7h3.3
		c0.6,0,1.1,0.1,1.5,0.4c0.4,0.3,0.5,0.7,0.5,1.2c0,0.3-0.1,0.5-0.2,0.8c-0.1,0.2-0.3,0.4-0.6,0.5c-0.3,0.1-0.7,0.2-1.3,0.3
		c0.4,0.1,0.7,0.2,0.9,0.3c0.2,0.1,0.3,0.3,0.4,0.4c0.1,0.2,0.2,0.5,0.3,1.1c0.1,0.4,0.2,0.6,0.3,0.8c0.1,0.1,0.2,0.2,0.2,0.2
		c0.1,0,0.2-0.1,0.3-0.2c0.1-0.1,0.1-0.4,0.1-0.7h0.3c-0.1,1-0.4,1.5-1.1,1.5c-0.2,0-0.4-0.1-0.6-0.2c-0.2-0.1-0.3-0.3-0.4-0.5
		c-0.1-0.2-0.1-0.6-0.2-1.2c0-0.4-0.1-0.7-0.2-0.8c-0.1-0.2-0.2-0.3-0.4-0.4c-0.2-0.1-0.4-0.1-0.7-0.1h-0.5v2.5c0,0.1,0,0.2,0.1,0.2
		c0.1,0.1,0.2,0.1,0.3,0.1h0.6v0.3h-3v-0.3h0.6c0.1,0,0.2,0,0.3-0.1c0.1-0.1,0.1-0.1,0.1-0.2v-5.2c0-0.1,0-0.2-0.1-0.2
		c-0.1-0.1-0.2-0.1-0.3-0.1H100V58.7z"/>
	<path clip-path="url(#SVGID_2_)" d="M109,58.7h3V59h-0.5c-0.2,0-0.4,0-0.4,0.1c-0.1,0.1-0.1,0.2-0.1,0.4v4.9c0,0.2,0,0.3,0.1,0.4
		c0.1,0.1,0.2,0.1,0.4,0.1h0.6v0.3h-3v-0.3h0.6c0.2,0,0.3,0,0.4-0.1c0.1-0.1,0.1-0.2,0.1-0.4v-4.9c0-0.2,0-0.3-0.1-0.3
		c-0.1-0.1-0.2-0.1-0.4-0.1H109V58.7z"/>
	<path clip-path="url(#SVGID_2_)" d="M112.7,58.7h1.5l3.9,5.1v-3.7c0-0.4-0.1-0.6-0.3-0.8c-0.2-0.2-0.4-0.2-0.7-0.3v-0.3h2.3V59
		c-0.2,0-0.4,0-0.5,0.1c-0.1,0.1-0.2,0.2-0.3,0.3c-0.1,0.2-0.1,0.4-0.1,0.6v5.1H118l-4-5.3v3.9c0,0.4,0.1,0.6,0.3,0.8
		c0.2,0.2,0.5,0.3,0.8,0.3v0.3h-2.5v-0.3c0.3,0,0.6-0.1,0.7-0.3c0.2-0.2,0.3-0.4,0.3-0.7v-4.4l-0.1-0.1c-0.1-0.2-0.2-0.3-0.3-0.3
		c-0.1,0-0.2-0.1-0.3-0.1h-0.3V58.7z"/>
	<path clip-path="url(#SVGID_2_)" d="M120,58.7h5.2l0.1,2.4H125c-0.2-1.4-0.7-2.2-1.6-2.2c-0.2,0-0.3,0-0.3,0.1
		c-0.1,0.1-0.1,0.2-0.1,0.3v5.2c0,0.1,0,0.2,0.1,0.2c0.1,0.1,0.2,0.1,0.3,0.1h0.7v0.3h-3v-0.3h0.7c0.1,0,0.2,0,0.2-0.1
		c0.1,0,0.1-0.1,0.1-0.2v-5.2c0-0.1,0-0.2-0.1-0.3c-0.1-0.1-0.2-0.1-0.3-0.1c-0.4,0-0.8,0.2-1.1,0.6c-0.2,0.3-0.4,0.8-0.5,1.6h-0.3
		L120,58.7z"/>
	<path clip-path="url(#SVGID_2_)" d="M126.1,58.7h5.1l0.1,2.2H131c-0.1-0.7-0.3-1.2-0.5-1.4c-0.3-0.3-0.6-0.4-1-0.4h-1.3
		c-0.1,0-0.2,0-0.2,0.1c-0.1,0.1-0.1,0.1-0.1,0.3v2.3h0.6c0.3,0,0.5-0.1,0.7-0.3c0.2-0.2,0.3-0.5,0.3-1h0.3v3h-0.3
		c0-0.5-0.1-0.8-0.3-1.1c-0.2-0.2-0.4-0.3-0.8-0.3h-0.5v2.6c0,0.1,0,0.2,0.1,0.2c0.1,0.1,0.2,0.1,0.3,0.1h1c1.1,0,1.7-0.7,1.9-2.1
		h0.3l-0.1,2.4h-5.3v-0.3h0.4c0.2,0,0.3,0,0.4-0.1c0.1-0.1,0.1-0.1,0.1-0.3v-5.1c0-0.1,0-0.2-0.1-0.3c-0.1-0.1-0.2-0.1-0.3-0.1h-0.5
		V58.7z"/>
	<path clip-path="url(#SVGID_2_)" d="M134.2,61.6h0.8c0.5,0,0.9-0.1,1.2-0.3s0.4-0.5,0.4-1c0-0.3-0.1-0.6-0.2-0.8
		c-0.1-0.2-0.3-0.3-0.4-0.4c-0.2-0.1-0.5-0.1-1-0.1c-0.3,0-0.6,0-0.6,0.1c-0.1,0-0.1,0.1-0.1,0.2V61.6z M132.2,58.7h3.3
		c0.6,0,1.1,0.1,1.5,0.4c0.4,0.3,0.5,0.7,0.5,1.2c0,0.3-0.1,0.5-0.2,0.8c-0.1,0.2-0.3,0.4-0.6,0.5c-0.3,0.1-0.7,0.2-1.3,0.3
		c0.4,0.1,0.7,0.2,0.9,0.3c0.2,0.1,0.3,0.3,0.4,0.4c0.1,0.2,0.2,0.5,0.3,1.1c0.1,0.4,0.2,0.6,0.3,0.8c0.1,0.1,0.2,0.2,0.2,0.2
		c0.1,0,0.2-0.1,0.3-0.2c0.1-0.1,0.1-0.4,0.1-0.7h0.3c-0.1,1-0.4,1.5-1.1,1.5c-0.2,0-0.4-0.1-0.6-0.2c-0.2-0.1-0.3-0.3-0.4-0.5
		c-0.1-0.2-0.1-0.6-0.2-1.2c0-0.4-0.1-0.7-0.2-0.8c-0.1-0.2-0.2-0.3-0.4-0.4c-0.2-0.1-0.4-0.1-0.7-0.1h-0.5v2.5c0,0.1,0,0.2,0.1,0.2
		c0.1,0.1,0.2,0.1,0.3,0.1h0.6v0.3h-3v-0.3h0.6c0.1,0,0.2,0,0.3-0.1c0.1-0.1,0.1-0.1,0.1-0.2v-5.2c0-0.1,0-0.2-0.1-0.2
		c-0.1-0.1-0.2-0.1-0.3-0.1h-0.6V58.7z"/>
	<path clip-path="url(#SVGID_2_)" d="M138.7,58.7h3V59h-0.5c-0.2,0-0.4,0-0.4,0.1c-0.1,0.1-0.1,0.2-0.1,0.4v4.9c0,0.2,0,0.3,0.1,0.4
		c0.1,0.1,0.2,0.1,0.4,0.1h0.6v0.3h-3v-0.3h0.6c0.2,0,0.3,0,0.4-0.1c0.1-0.1,0.1-0.2,0.1-0.4v-4.9c0-0.2,0-0.3-0.1-0.3
		c-0.1-0.1-0.2-0.1-0.4-0.1h-0.5V58.7z"/>
	<path clip-path="url(#SVGID_2_)" d="M145.5,58.9c-0.6,0-1,0.2-1.4,0.7c-0.4,0.5-0.5,1.2-0.5,2.3c0,1.2,0.2,2,0.5,2.4
		c0.4,0.4,0.8,0.7,1.3,0.7c0.4,0,0.7-0.1,1-0.3c0.3-0.2,0.5-0.5,0.7-1c0.2-0.4,0.3-1,0.3-1.7c0-0.8-0.1-1.4-0.2-1.8
		c-0.2-0.4-0.4-0.8-0.7-1C146.2,59,145.9,58.9,145.5,58.9 M145.5,58.5c0.5,0,1.1,0.1,1.5,0.4c0.5,0.3,0.8,0.7,1.1,1.2
		c0.3,0.5,0.4,1.1,0.4,1.7c0,0.6-0.1,1.2-0.4,1.7c-0.3,0.5-0.6,0.9-1.1,1.2c-0.5,0.3-1,0.4-1.5,0.4c-0.5,0-1-0.1-1.5-0.4
		c-0.5-0.3-0.8-0.7-1.1-1.2c-0.3-0.5-0.4-1.1-0.4-1.8c0-0.6,0.1-1.2,0.4-1.7c0.3-0.5,0.6-0.9,1.1-1.2
		C144.5,58.7,145,58.5,145.5,58.5"/>
	<path clip-path="url(#SVGID_2_)" d="M151.2,61.6h0.8c0.5,0,0.9-0.1,1.2-0.3s0.4-0.5,0.4-1c0-0.3-0.1-0.6-0.2-0.8
		c-0.1-0.2-0.3-0.3-0.4-0.4c-0.2-0.1-0.5-0.1-1-0.1c-0.3,0-0.6,0-0.6,0.1c-0.1,0-0.1,0.1-0.1,0.2V61.6z M149.2,58.7h3.3
		c0.6,0,1.1,0.1,1.5,0.4c0.4,0.3,0.5,0.7,0.5,1.2c0,0.3-0.1,0.5-0.2,0.8c-0.1,0.2-0.3,0.4-0.6,0.5c-0.3,0.1-0.7,0.2-1.3,0.3
		c0.4,0.1,0.7,0.2,0.9,0.3c0.2,0.1,0.3,0.3,0.4,0.4c0.1,0.2,0.2,0.5,0.3,1.1c0.1,0.4,0.2,0.6,0.3,0.8c0.1,0.1,0.2,0.2,0.2,0.2
		c0.1,0,0.2-0.1,0.3-0.2c0.1-0.1,0.1-0.4,0.1-0.7h0.3c-0.1,1-0.4,1.5-1.1,1.5c-0.2,0-0.4-0.1-0.6-0.2c-0.2-0.1-0.3-0.3-0.4-0.5
		c-0.1-0.2-0.1-0.6-0.2-1.2c0-0.4-0.1-0.7-0.2-0.8c-0.1-0.2-0.2-0.3-0.4-0.4c-0.2-0.1-0.4-0.1-0.7-0.1h-0.5v2.5c0,0.1,0,0.2,0.1,0.2
		c0.1,0.1,0.2,0.1,0.3,0.1h0.6v0.3h-3v-0.3h0.6c0.1,0,0.2,0,0.3-0.1c0.1-0.1,0.1-0.1,0.1-0.2v-5.2c0-0.1,0-0.2-0.1-0.2
		c-0.1-0.1-0.2-0.1-0.3-0.1h-0.6V58.7z"/>
	<path clip-path="url(#SVGID_2_)" d="M159.6,59.1l0.4-0.6h0.3l0,2.3H160c-0.2-0.7-0.4-1.2-0.8-1.6c-0.4-0.3-0.8-0.5-1.2-0.5
		c-0.4,0-0.7,0.1-0.9,0.3c-0.2,0.2-0.4,0.5-0.4,0.8c0,0.2,0,0.4,0.1,0.5c0.1,0.2,0.2,0.3,0.4,0.4c0.2,0.1,0.5,0.2,1,0.3
		c0.7,0.2,1.2,0.3,1.5,0.5c0.3,0.2,0.5,0.4,0.6,0.6c0.1,0.2,0.2,0.5,0.2,0.9c0,0.6-0.2,1.1-0.6,1.4c-0.4,0.4-0.9,0.6-1.5,0.6
		c-0.7,0-1.2-0.2-1.7-0.6l-0.5,0.6H156v-2.5h0.3c0.1,0.7,0.4,1.2,0.8,1.6c0.4,0.4,0.9,0.6,1.4,0.6c0.4,0,0.8-0.1,1.1-0.4
		c0.3-0.3,0.4-0.6,0.4-0.9c0-0.2-0.1-0.4-0.2-0.5c-0.1-0.2-0.3-0.3-0.5-0.4c-0.2-0.1-0.7-0.2-1.3-0.4c-0.7-0.2-1.2-0.4-1.5-0.6
		c-0.4-0.3-0.5-0.7-0.5-1.3c0-0.6,0.2-1,0.5-1.4c0.4-0.4,0.8-0.5,1.4-0.5c0.3,0,0.5,0,0.8,0.1C159.1,58.8,159.3,58.9,159.6,59.1"/>
</g>
</svg>
